<?xml version="1.0" encoding="UTF-8" standalone="no"?>
<svg
   version="1.1"
   width="1920px"
   height="960px"
   viewBox="0,0,256,128"
   id="svg1104"
   sodipodi:docname="iconizer-index.89d3119228d600788910.svg"
   inkscape:version="1.2.2 (b0a8486, 2022-12-01)"
   xmlns:inkscape="http://www.inkscape.org/namespaces/inkscape"
   xmlns:sodipodi="http://sodipodi.sourceforge.net/DTD/sodipodi-0.dtd"
   xmlns="http://www.w3.org/2000/svg"
   xmlns:svg="http://www.w3.org/2000/svg">
  <sodipodi:namedview
     id="namedview1106"
     pagecolor="#ffffff"
     bordercolor="#000000"
     borderopacity="0.25"
     inkscape:showpageshadow="2"
     inkscape:pageopacity="0.0"
     inkscape:pagecheckerboard="0"
     inkscape:deskcolor="#d1d1d1"
     showgrid="false"
     inkscape:zoom="0.22290863"
     inkscape:cx="838.90875"
     inkscape:cy="412.72516"
     inkscape:window-width="1440"
     inkscape:window-height="456"
     inkscape:window-x="0"
     inkscape:window-y="25"
     inkscape:window-maximized="0"
     inkscape:current-layer="svg1104" />
  <defs
     id="defs639">
    <clipPath
       id="clip-1">
      <rect
         x="0"
         y="-61"
         width="1920"
         height="1082"
         id="clip0_4_5156"
         fill="none"
         fill-rule="nonzero"
         stroke="none"
         stroke-width="1" />
    </clipPath>
    <clipPath
       id="clip-2">
      <rect
         x="-19"
         y="461"
         width="1958"
         height="636"
         id="clip1_4_5156"
         fill="none"
         stroke="none"
         stroke-width="1" />
    </clipPath>
    <linearGradient
       x1="960"
       y1="1300.777"
       x2="960"
       y2="15"
       gradientUnits="userSpaceOnUse"
       id="color-1">
      <stop
         offset="0.14952"
         stop-color="#000000"
         stop-opacity="0"
         id="stop605" />
      <stop
         offset="0.51521"
         stop-color="#000000"
         id="stop607" />
    </linearGradient>
    <linearGradient
       x1="960"
       y1="315.99991"
       x2="959.99981"
       y2="2459.99991"
       gradientUnits="userSpaceOnUse"
       id="color-2">
      <stop
         offset="0"
         stop-color="#10c1e9"
         stop-opacity="0"
         id="stop610" />
      <stop
         offset="0.41667"
         stop-color="#10c1e9"
         id="stop612" />
    </linearGradient>
    <linearGradient
       x1="960"
       y1="722.99992"
       x2="959.99981"
       y2="2865.99992"
       gradientUnits="userSpaceOnUse"
       id="color-3">
      <stop
         offset="0"
         stop-color="#0b4589"
         stop-opacity="0"
         id="stop615" />
      <stop
         offset="0.41667"
         stop-color="#0b4589"
         id="stop617" />
    </linearGradient>
    <clipPath
       id="clip-3">
      <rect
         x="-1939"
         y="-431"
         transform="rotate(-180)"
         width="1958"
         height="636"
         id="clip2_4_5156"
         fill="none"
         stroke="none"
         stroke-width="1" />
    </clipPath>
    <linearGradient
       x1="960.00002"
       y1="-408.77709"
       x2="959.99991"
       y2="876.99991"
       gradientUnits="userSpaceOnUse"
       id="color-4">
      <stop
         offset="0.14952"
         stop-color="#000000"
         stop-opacity="0"
         id="stop622" />
      <stop
         offset="0.51521"
         stop-color="#000000"
         id="stop624" />
    </linearGradient>
    <linearGradient
       x1="960"
       y1="575"
       x2="960"
       y2="-1569"
       gradientUnits="userSpaceOnUse"
       id="color-5">
      <stop
         offset="0"
         stop-color="#10c1e9"
         stop-opacity="0"
         id="stop627" />
      <stop
         offset="0.41667"
         stop-color="#10c1e9"
         id="stop629" />
      <stop
         offset="0.82292"
         stop-color="#10c1e9"
         id="stop631" />
    </linearGradient>
    <linearGradient
       x1="960"
       y1="169.00018"
       x2="960.00037"
       y2="-1974.99982"
       gradientUnits="userSpaceOnUse"
       id="color-6">
      <stop
         offset="0"
         stop-color="#0b4589"
         stop-opacity="0"
         id="stop634" />
      <stop
         offset="0.41667"
         stop-color="#0b4589"
         id="stop636" />
    </linearGradient>
  </defs>
  <g
     fill="none"
     fill-rule="none"
     stroke="none"
     stroke-width="none"
     stroke-linecap="butt"
     stroke-linejoin="miter"
     stroke-miterlimit="10"
     stroke-dasharray="none"
     stroke-dashoffset="0"
     font-family="none"
     font-weight="none"
     font-size="none"
     text-anchor="none"
     style="mix-blend-mode:normal"
     id="g1102"
     transform="matrix(1,0,0,1.3399935,0,-46.283286)">
    <g
       transform="scale(0.13333)"
       id="g1100">
      <g
         clip-path="url(#clip-1)"
         id="index">
        <rect
           x="0"
           y="-61"
           width="1920"
           height="1082"
           fill="#000000"
           fill-rule="nonzero"
           stroke="none"
           stroke-width="1"
           id="rect641" />
        <g
           id="Group 7">
          <g
             clip-path="url(#clip-2)"
             id="Frame 1"
             fill-rule="nonzero">
            <g
               id="Grid">
              <g
                 id="Group 4"
                 fill="none"
                 stroke="#b7f8eb"
                 stroke-width="2.40444">
                <g
                   id="Group 2">
                  <path
                     d="M 7203.93,2140.27 952.259,-199.256"
                     id="Vector 63" />
                  <path
                     d="M 6874.89,2140.27 952.258,-199.256"
                     id="Vector 64" />
                  <path
                     d="M -1350.99,2140.27 952.258,-199.256"
                     id="Vector 25" />
                  <path
                     d="M 3255.5,2140.27 952.258,-199.256"
                     id="Vector 65" />
                  <path
                     d="M -1021.95,2140.27 952.258,-199.256"
                     id="Vector 50" />
                  <path
                     d="M 2926.47,2140.27 952.258,-199.256"
                     id="Vector 66" />
                  <path
                     d="M -34.8472,2140.27 952.258,-199.256"
                     id="Vector 31" />
                  <path
                     d="M 1939.36,2140.27 952.257,-199.256"
                     id="Vector 67" />
                  <path
                     d="M 294.188,2140.27 952.258,-199.256"
                     id="Vector 52" />
                  <path
                     d="M 1610.33,2140.27 952.257,-199.256"
                     id="Vector 68" />
                  <path
                     d="M 623.223,2140.27 952.258,-199.256"
                     id="Vector 43" />
                  <path
                     d="M 952.258,2140.27 V -199.256"
                     id="Vector 82" />
                  <path
                     d="M 1281.29,2140.27 952.258,-199.256"
                     id="Vector 69" />
                  <path
                     d="M -692.918,2140.27 952.258,-199.256"
                     id="Vector 32" />
                  <path
                     d="M 2597.43,2140.27 952.258,-199.256"
                     id="Vector 70" />
                  <path
                     d="M -363.883,2140.27 952.258,-199.256"
                     id="Vector 51" />
                  <path
                     d="M 2268.4,2140.27 952.257,-199.256"
                     id="Vector 71" />
                  <path
                     d="M -2009.06,2140.27 952.258,-199.256"
                     id="Vector 26" />
                  <path
                     d="M 3913.58,2140.27 952.259,-199.256"
                     id="Vector 72" />
                  <path
                     d="M -1680.02,2140.27 952.258,-199.256"
                     id="Vector 49" />
                  <path
                     d="M 3584.54,2140.27 952.258,-199.256"
                     id="Vector 73" />
                  <path
                     d="M -2667.13,2140.27 952.258,-199.256"
                     id="Vector 27" />
                  <path
                     d="M 4571.65,2140.27 952.259,-199.256"
                     id="Vector 74" />
                  <path
                     d="M -2338.09,2140.27 952.257,-199.256"
                     id="Vector 48" />
                  <path
                     d="M 4242.61,2140.27 952.26,-199.256"
                     id="Vector 75" />
                  <path
                     d="M -3325.2,2140.27 952.258,-199.256"
                     id="Vector 28" />
                  <path
                     d="M 5229.71,2140.27 952.257,-199.256"
                     id="Vector 76" />
                  <path
                     d="M -2996.16,2140.27 952.258,-199.256"
                     id="Vector 47" />
                  <path
                     d="M 4900.68,2140.27 952.257,-199.256"
                     id="Vector 77" />
                  <path
                     d="M -3983.27,2140.27 952.257,-199.256"
                     id="Vector 29" />
                  <path
                     d="M 5887.79,2140.27 952.26,-199.256"
                     id="Vector 78" />
                  <path
                     d="M -3654.23,2140.27 952.258,-199.256"
                     id="Vector 46" />
                  <path
                     d="M 5558.75,2140.27 952.257,-199.256"
                     id="Vector 79" />
                  <path
                     d="M 6545.86,2140.27 952.258,-199.256"
                     id="Vector 80" />
                  <path
                     d="M -4312.3,2140.27 952.257,-199.256"
                     id="Vector 45" />
                  <path
                     d="M 6216.82,2140.27 952.258,-199.256"
                     id="Vector 81" />
                </g>
                <g
                   id="Group 1">
                  <path
                     d="M -4805.86,958.207 H 7697.48"
                     id="Vector 106" />
                  <path
                     d="M -4805.86,936.066 H 7697.48"
                     id="Vector 107" />
                  <path
                     d="M -4805.86,914.746 H 7697.48"
                     id="Vector 108" />
                  <path
                     d="M -4805.86,894.245 H 7697.48"
                     id="Vector 109" />
                  <path
                     d="M -4805.86,874.564 H 7697.48"
                     id="Vector 110" />
                  <path
                     d="M -4805.86,855.703 H 7697.48"
                     id="Vector 111" />
                  <path
                     d="M -4805.86,837.663 H 7697.48"
                     id="Vector 112" />
                  <path
                     d="M -4805.86,820.443 H 7697.48"
                     id="Vector 113" />
                  <path
                     d="M -4805.86,804.042 H 7697.48"
                     id="Vector 114" />
                  <path
                     d="M -4805.86,788.462 H 7697.48"
                     id="Vector 115" />
                  <path
                     d="M -4805.86,773.702 H 7697.48"
                     id="Vector 116" />
                  <path
                     d="M -4805.86,759.761 H 7697.48"
                     id="Vector 117" />
                  <path
                     d="M -4805.86,746.641 H 7697.48"
                     id="Vector 118" />
                  <path
                     d="M -4805.86,734.341 H 7697.48"
                     id="Vector 119" />
                  <path
                     d="M -4805.86,722.861 H 7697.48"
                     id="Vector 120" />
                  <path
                     d="M -4805.86,712.2 H 7697.48"
                     id="Vector 121" />
                  <path
                     d="M -4805.86,702.36 H 7697.48"
                     id="Vector 122" />
                  <path
                     d="M -4805.86,693.34 H 7697.48"
                     id="Vector 123" />
                  <path
                     d="M -4805.86,685.14 H 7697.48"
                     id="Vector 124" />
                  <path
                     d="M -4805.86,677.759 H 7697.48"
                     id="Vector 125" />
                  <path
                     d="M -4805.86,671.199 H 7697.48"
                     id="Vector 126" />
                  <path
                     d="M -4805.86,665.459 H 7697.48"
                     id="Vector 127" />
                  <path
                     d="M -4805.86,660.539 H 7697.48"
                     id="Vector 128" />
                  <path
                     d="M -4805.86,656.439 H 7697.48"
                     id="Vector 129" />
                  <path
                     d="M -4805.86,653.158 H 7697.48"
                     id="Vector 130" />
                  <path
                     d="M -4805.86,650.698 H 7697.48"
                     id="Vector 131" />
                  <path
                     d="M -4805.86,649.058 H 7697.48"
                     id="Vector 132" />
                  <path
                     d="M -4805.86,648.239 H 7697.48"
                     id="Vector 133" />
                </g>
              </g>
              <rect
                 x="-4"
                 y="-1097"
                 transform="scale(1,-1)"
                 width="1928"
                 height="1082"
                 id="Rectangle 1"
                 fill="url(#color-1)"
                 stroke="none"
                 stroke-width="1"
                 style="fill:url(#color-1)" />
            </g>
            <rect
               x="-1955"
               y="315.99982"
               transform="scale(-1,1)"
               width="1990"
               height="2144"
               id="Rectangle 2"
               fill-opacity="0.2"
               fill="url(#color-2)"
               stroke="none"
               stroke-width="1"
               style="fill:url(#color-2)" />
            <rect
               x="-1924"
               y="722.99982"
               transform="scale(-1,1)"
               width="1928"
               height="2143"
               id="Rectangle 1_2"
               fill="url(#color-3)"
               stroke="none"
               stroke-width="1"
               style="fill:url(#color-3)" />
          </g>
          <g
             clip-path="url(#clip-3)"
             id="Frame 2"
             fill-rule="nonzero">
            <g
               id="Grid_2">
              <g
                 id="Group 4_2"
                 fill="none"
                 stroke="#b7f8eb"
                 stroke-width="2.40444">
                <g
                   id="Group 2_2">
                  <path
                     d="M -5283.93,-1248.8 967.741,1090.73"
                     id="Vector 63_2" />
                  <path
                     d="M -4954.89,-1248.8 967.742,1090.73"
                     id="Vector 64_2" />
                  <path
                     d="M 3270.99,-1248.8 967.742,1090.73"
                     id="Vector 25_2" />
                  <path
                     d="M -1335.5,-1248.8 967.742,1090.73"
                     id="Vector 65_2" />
                  <path
                     d="M 2941.95,-1248.8 967.742,1090.73"
                     id="Vector 50_2" />
                  <path
                     d="M -1006.47,-1248.8 967.742,1090.73"
                     id="Vector 66_2" />
                  <path
                     d="M 1954.85,-1248.8 967.742,1090.73"
                     id="Vector 31_2" />
                  <path
                     d="M -19.3628,-1248.8 967.742,1090.73"
                     id="Vector 67_2" />
                  <path
                     d="M 1625.81,-1248.8 967.742,1090.73"
                     id="Vector 52_2" />
                  <path
                     d="m 309.672,-1248.8 658.07,2339.53"
                     id="Vector 68_2" />
                  <path
                     d="M 1296.78,-1248.8 967.742,1090.73"
                     id="Vector 43_2" />
                  <path
                     d="m 967.742,-1248.8 -10e-4,2339.53"
                     id="Vector 82_2" />
                  <path
                     d="M 638.707,-1248.8 967.741,1090.73"
                     id="Vector 69_2" />
                  <path
                     d="M 2612.92,-1248.8 967.742,1090.73"
                     id="Vector 32_2" />
                  <path
                     d="M -677.434,-1248.8 967.742,1090.73"
                     id="Vector 70_2" />
                  <path
                     d="M 2283.88,-1248.8 967.742,1090.73"
                     id="Vector 51_2" />
                  <path
                     d="M -348.398,-1248.8 967.742,1090.73"
                     id="Vector 71_2" />
                  <path
                     d="M 3929.06,-1248.8 967.742,1090.73"
                     id="Vector 26_2" />
                  <path
                     d="M -1993.58,-1248.8 967.741,1090.73"
                     id="Vector 72_2" />
                  <path
                     d="M 3600.02,-1248.8 967.742,1090.73"
                     id="Vector 49_2" />
                  <path
                     d="M -1664.54,-1248.8 967.742,1090.73"
                     id="Vector 73_2" />
                  <path
                     d="M 4587.13,-1248.8 967.741,1090.73"
                     id="Vector 27_2" />
                  <path
                     d="M -2651.65,-1248.8 967.741,1090.73"
                     id="Vector 74_2" />
                  <path
                     d="M 4258.09,-1248.8 967.742,1090.73"
                     id="Vector 48_2" />
                  <path
                     d="M -2322.61,-1248.8 967.74,1090.73"
                     id="Vector 75_2" />
                  <path
                     d="M 5245.2,-1248.8 967.741,1090.73"
                     id="Vector 28_2" />
                  <path
                     d="M -3309.71,-1248.8 967.743,1090.73"
                     id="Vector 76_2" />
                  <path
                     d="M 4916.16,-1248.8 967.741,1090.73"
                     id="Vector 47_2" />
                  <path
                     d="M -2980.68,-1248.8 967.743,1090.73"
                     id="Vector 77_2" />
                  <path
                     d="M 5903.27,-1248.8 967.743,1090.73"
                     id="Vector 29_2" />
                  <path
                     d="M -3967.79,-1248.8 967.739,1090.73"
                     id="Vector 78_2" />
                  <path
                     d="M 5574.23,-1248.8 967.742,1090.73"
                     id="Vector 46_2" />
                  <path
                     d="M -3638.75,-1248.8 967.742,1090.73"
                     id="Vector 79_2" />
                  <path
                     d="M -4625.86,-1248.8 967.742,1090.73"
                     id="Vector 80_2" />
                  <path
                     d="M 6232.3,-1248.8 967.743,1090.73"
                     id="Vector 45_2" />
                  <path
                     d="M -4296.82,-1248.8 967.741,1090.73"
                     id="Vector 81_2" />
                </g>
                <g
                   id="Group 1_2">
                  <path
                     d="M 6725.86,16.9092 -5777.48,16.9081"
                     id="Vector 110_2" />
                  <path
                     d="M 6725.86,35.7701 -5777.48,35.769"
                     id="Vector 111_2" />
                  <path
                     d="M 6725.86,53.8105 -5777.48,53.8094"
                     id="Vector 112_2" />
                  <path
                     d="M 6725.86,71.0302 -5777.48,71.0291"
                     id="Vector 113_2" />
                  <path
                     d="M 6725.86,87.4315 -5777.48,87.4304"
                     id="Vector 114_2" />
                  <path
                     d="M 6725.86,103.012 -5777.48,103.011"
                     id="Vector 115_2" />
                  <path
                     d="M 6725.86,117.771 -5777.48,117.77"
                     id="Vector 116_2" />
                  <path
                     d="M 6725.86,131.712 -5777.48,131.711"
                     id="Vector 117_2" />
                  <path
                     d="M 6725.86,144.833 -5777.48,144.832"
                     id="Vector 118_2" />
                  <path
                     d="M 6725.86,157.132 -5777.48,157.131"
                     id="Vector 119_2" />
                  <path
                     d="M 6725.86,168.613 -5777.48,168.612"
                     id="Vector 120_2" />
                  <path
                     d="M 6725.86,179.273 -5777.48,179.272"
                     id="Vector 121_2" />
                  <path
                     d="M 6725.86,189.113 -5777.48,189.112"
                     id="Vector 122_2" />
                  <path
                     d="M 6725.86,198.134 -5777.48,198.133"
                     id="Vector 123_2" />
                  <path
                     d="M 6725.86,206.334 -5777.48,206.333"
                     id="Vector 124_2" />
                  <path
                     d="M 6725.86,213.714 -5777.48,213.713"
                     id="Vector 125_2" />
                  <path
                     d="M 6725.86,220.275 -5777.48,220.274"
                     id="Vector 126_2" />
                  <path
                     d="M 6725.86,226.014 -5777.48,226.013"
                     id="Vector 127_2" />
                  <path
                     d="M 6725.86,230.935 -5777.48,230.933"
                     id="Vector 128_2" />
                  <path
                     d="M 6725.86,235.035 -5777.48,235.034"
                     id="Vector 129_2" />
                  <path
                     d="M 6725.86,238.315 -5777.48,238.314"
                     id="Vector 130_2" />
                  <path
                     d="M 6725.86,240.775 -5777.48,240.774"
                     id="Vector 131_2" />
                  <path
                     d="M 6725.86,242.415 -5777.48,242.414"
                     id="Vector 132_2" />
                  <path
                     d="M 6725.86,243.235 -5777.48,243.234"
                     id="Vector 133_2" />
                </g>
              </g>
              <rect
                 x="-1939"
                 y="-205.00017"
                 transform="scale(-1,1)"
                 width="1958"
                 height="1082"
                 id="Rectangle 1_3"
                 fill="url(#color-4)"
                 stroke="none"
                 stroke-width="1"
                 style="fill:url(#color-4)" />
            </g>
            <path
               d="M -23.9996,614.5 H 1934 v -2144 H -23.9993 Z"
               id="Rectangle 2_2"
               fill-opacity="0.2"
               fill="url(#color-5)"
               stroke="none"
               stroke-width="1"
               style="fill:url(#color-5)" />
            <rect
               x="-46.999969"
               y="-169.00002"
               transform="scale(1,-1)"
               width="2014"
               height="2144"
               id="Rectangle 1_4"
               fill="url(#color-6)"
               stroke="none"
               stroke-width="1"
               style="fill:url(#color-6)" />
            <rect
               x="1503"
               y="179"
               width="186"
               height="186"
               id="saturn"
               fill="#000000"
               stroke="none"
               stroke-width="1" />
          </g>
          <g
             id="Stars"
             fill="#ffffff"
             fill-rule="evenodd"
             stroke="none"
             stroke-width="1">
            <g
               id="star-1">
              <path
                 d="M 293.969,223.927 V 214.3 c -1.855,-0.079 -3.568,-0.707 -4.982,-1.725 l -3.385,3.386 -1.7,-1.701 3.333,-3.333 c -1.223,-1.493 -1.986,-3.376 -2.074,-5.434 h -10.428 v -2.405 h 10.638 c 0.36,-1.622 1.147,-3.083 2.237,-4.26 l -3.706,-3.706 1.7,-1.7 3.864,3.864 c 1.314,-0.827 2.852,-1.332 4.503,-1.403 v -10.427 h 2.404 v 10.637 c 1.431,0.317 2.737,0.967 3.832,1.864 l 4.535,-4.535 1.7,1.7 -4.587,4.588 c 0.717,0.995 1.241,2.14 1.515,3.378 h 9.836 v 2.405 h -9.626 c -0.07,1.65 -0.575,3.188 -1.402,4.502 l 4.264,4.265 -1.7,1.701 -4.107,-4.107 c -1.176,1.09 -2.637,1.877 -4.26,2.236 v 9.837 z"
                 id="path784" />
            </g>
            <g
               id="start-4">
              <path
                 d="m 844.587,518.471 v -9.626 c -1.855,-0.08 -3.569,-0.707 -4.982,-1.726 l -3.385,3.386 -1.7,-1.7 3.333,-3.333 c -1.223,-1.493 -1.986,-3.377 -2.074,-5.435 h -10.428 v -2.404 h 10.638 c 0.359,-1.623 1.146,-3.084 2.237,-4.26 l -3.706,-3.707 1.7,-1.7 3.864,3.864 c 1.314,-0.827 2.852,-1.332 4.503,-1.402 V 480 h 2.404 v 10.638 c 1.431,0.317 2.737,0.966 3.832,1.863 l 4.535,-4.535 1.7,1.7 -4.587,4.588 c 0.717,0.996 1.241,2.14 1.515,3.379 h 9.836 v 2.404 h -9.626 c -0.071,1.65 -0.575,3.188 -1.403,4.503 l 4.265,4.265 -1.7,1.7 -4.107,-4.107 c -1.176,1.09 -2.638,1.877 -4.26,2.237 v 9.836 z"
                 id="path787" />
            </g>
            <g
               id="star-2">
              <path
                 d="m 576.491,288.847 v -9.627 c -1.855,-0.079 -3.568,-0.707 -4.981,-1.725 l -3.386,3.385 -1.7,-1.7 3.333,-3.333 c -1.222,-1.493 -1.986,-3.376 -2.074,-5.434 h -10.427 v -2.405 h 10.637 c 0.36,-1.622 1.147,-3.083 2.237,-4.26 l -3.706,-3.706 1.7,-1.7 3.864,3.864 c 1.315,-0.827 2.853,-1.332 4.503,-1.403 v -10.428 h 2.405 v 10.638 c 1.43,0.317 2.736,0.967 3.831,1.864 l 4.535,-4.535 1.701,1.7 -4.588,4.588 c 0.717,0.995 1.241,2.14 1.515,3.378 h 9.837 v 2.405 H 586.1 c -0.07,1.65 -0.575,3.188 -1.402,4.502 l 4.265,4.265 -1.7,1.701 -4.107,-4.107 c -1.177,1.09 -2.638,1.877 -4.26,2.236 v 9.837 z"
                 id="path790" />
            </g>
            <g
               id="star-5">
              <path
                 d="m 1135.52,508.853 v -21.65 c -2.31,-0.1 -4.46,-0.884 -6.22,-2.157 l -4.23,4.232 -2.13,-2.126 4.17,-4.166 c -1.49,-1.817 -2.44,-4.098 -2.58,-6.593 h -13.05 v -3.606 h 13.39 c 0.49,-1.868 1.43,-3.552 2.7,-4.925 l -4.63,-4.632 2.13,-2.125 4.83,4.83 c 1.64,-1.034 3.56,-1.665 5.62,-1.754 v -22.652 h 2.41 v 22.798 c 2.02,0.337 3.87,1.201 5.39,2.446 l 5.67,-5.669 2.12,2.126 -5.73,5.734 c 0.82,1.137 1.43,2.428 1.8,3.823 h 12.39 v 3.606 h -12.04 c -0.12,1.987 -0.75,3.839 -1.75,5.428 l 5.33,5.332 -2.12,2.125 -5.14,-5.134 c -1.61,1.496 -3.65,2.536 -5.92,2.913 v 21.796 z"
                 id="path793" />
            </g>
            <g
               id="Union">
              <path
                 d="m 1801.56,-18.9223 v -21.6505 c -2.32,-0.0992 -4.46,-0.884 -6.23,-2.1567 l -4.23,4.2317 -2.13,-2.1252 4.17,-4.1662 c -1.49,-1.8175 -2.43,-4.0983 -2.58,-6.5931 h -13.05 v -3.6066 h 13.39 c 0.49,-1.8677 1.43,-3.5512 2.7,-4.9241 l -4.63,-4.6327 2.13,-2.1252 4.83,4.8301 c 1.64,-1.0342 3.56,-1.665 5.63,-1.7532 v -22.6527 h 2.4 v 22.7985 c 2.02,0.3365 3.87,1.2006 5.39,2.4461 l 5.67,-5.6691 2.13,2.1253 -5.74,5.7346 c 0.82,1.1364 1.44,2.4281 1.8,3.8224 h 12.39 v 3.6066 h -12.04 c -0.12,1.9872 -0.75,3.8386 -1.75,5.4283 l 5.34,5.3312 -2.13,2.1252 -5.13,-5.1337 c -1.62,1.4962 -3.66,2.5356 -5.93,2.9126 v 21.7964 z"
                 id="path796" />
            </g>
            <g
               id="star-6">
              <path
                 d="M 1330.28,125.344 V 110.91 c -1.62,-0.069 -3.12,-0.618 -4.35,-1.509 l -2.97,2.962 -1.48,-1.488 2.91,-2.916 c -1.07,-1.306 -1.74,-2.954 -1.81,-4.755 h -9.13 V 101.1 h 9.31 c 0.32,-1.4197 1,-2.6984 1.96,-3.7278 l -3.24,-3.2428 1.48,-1.4877 3.38,3.3811 c 1.15,-0.724 2.5,-1.1655 3.94,-1.2273 V 79.6599 h 2.41 v 15.392 c 1.13,0.2978 2.17,0.8364 3.05,1.5579 l 3.97,-3.9684 1.49,1.4877 -4.02,4.0143 c 0.63,0.8712 1.09,1.8726 1.33,2.9566 h 8.61 v 2.104 h -8.43 c -0.06,1.444 -0.5,2.789 -1.22,3.94 l 3.73,3.731 -1.49,1.488 -3.59,-3.594 c -0.96,0.887 -2.13,1.544 -3.43,1.885 v 14.69 z"
                 id="path799" />
            </g>
            <g
               id="star-7">
              <path
                 d="m 1758.28,750.5 v -14.434 c -1.63,-0.07 -3.13,-0.619 -4.36,-1.51 l -2.97,2.962 -1.48,-1.487 2.91,-2.917 c -1.07,-1.306 -1.73,-2.954 -1.81,-4.755 h -9.13 v -2.104 h 9.31 c 0.32,-1.419 1.01,-2.698 1.96,-3.727 l -3.24,-3.243 1.48,-1.488 3.39,3.381 c 1.15,-0.724 2.49,-1.165 3.94,-1.227 v -15.136 h 2.4 v 15.392 c 1.13,0.298 2.17,0.837 3.05,1.558 l 3.97,-3.968 1.49,1.488 -4.02,4.014 c 0.63,0.871 1.09,1.873 1.33,2.956 h 8.61 v 2.104 h -8.43 c -0.06,1.444 -0.5,2.79 -1.22,3.94 l 3.73,3.732 -1.49,1.488 -3.59,-3.594 c -0.96,0.886 -2.13,1.543 -3.43,1.885 v 14.69 z"
                 id="path802" />
            </g>
            <g
               id="star-3">
              <path
                 d="m 296.373,427.102 v -4.211 c -0.811,-0.035 -1.561,-0.31 -2.179,-0.755 l -1.481,1.481 -0.744,-0.744 1.458,-1.458 c -0.535,-0.653 -0.869,-1.477 -0.907,-2.378 h -4.562 v -1.052 h 4.654 c 0.157,-0.709 0.501,-1.349 0.978,-1.863 l -1.621,-1.622 0.744,-0.744 1.69,1.691 c 0.575,-0.362 1.248,-0.583 1.97,-0.614 v -4.562 h 1.203 v 4.691 c 0.567,0.148 1.085,0.418 1.526,0.778 l 1.984,-1.984 0.744,0.744 -2.008,2.007 c 0.314,0.436 0.543,0.937 0.663,1.478 h 4.304 v 1.052 h -4.212 c -0.031,0.722 -0.251,1.395 -0.613,1.97 l 1.866,1.866 -0.744,0.744 -1.797,-1.797 c -0.478,0.443 -1.064,0.772 -1.713,0.943 v 4.339 z"
                 id="path805" />
            </g>
            <g
               id="star-8">
              <path
                 d="m 158.118,643.502 v -4.211 c -0.812,-0.035 -1.561,-0.31 -2.18,-0.755 l -1.481,1.481 -0.744,-0.744 1.458,-1.458 c -0.534,-0.653 -0.868,-1.477 -0.907,-2.378 h -4.562 v -1.052 h 4.654 c 0.157,-0.709 0.502,-1.349 0.979,-1.863 l -1.622,-1.622 0.744,-0.744 1.691,1.691 c 0.575,-0.362 1.248,-0.583 1.97,-0.614 v -4.562 h 1.202 v 4.69 c 0.567,0.149 1.085,0.419 1.526,0.779 l 1.984,-1.984 0.744,0.744 -2.007,2.007 c 0.314,0.436 0.543,0.937 0.663,1.478 h 4.303 v 1.052 h -4.211 c -0.031,0.722 -0.252,1.395 -0.614,1.97 l 1.866,1.866 -0.744,0.744 -1.797,-1.797 c -0.478,0.443 -1.063,0.772 -1.713,0.943 v 4.339 z"
                 id="path808" />
            </g>
            <g
               id="Union_2">
              <path
                 d="m 990.056,305.678 v -4.212 c -0.812,-0.034 -1.562,-0.309 -2.18,-0.755 l -1.481,1.481 -0.744,-0.743 1.458,-1.458 c -0.534,-0.654 -0.868,-1.478 -0.907,-2.378 h -4.562 v -1.052 h 4.654 c 0.157,-0.71 0.502,-1.349 0.979,-1.864 l -1.622,-1.621 0.744,-0.744 1.691,1.691 c 0.575,-0.362 1.248,-0.583 1.97,-0.614 v -4.562 h 1.202 v 4.69 c 0.567,0.149 1.085,0.418 1.526,0.779 l 1.984,-1.984 0.744,0.744 -2.007,2.007 c 0.314,0.435 0.543,0.936 0.663,1.478 h 4.303 v 1.052 h -4.211 c -0.031,0.722 -0.252,1.395 -0.614,1.97 l 1.866,1.866 -0.744,0.744 -1.797,-1.797 c -0.478,0.443 -1.064,0.772 -1.713,0.942 v 4.34 z"
                 id="path811" />
            </g>
            <g
               id="Union_3">
              <path
                 d="m 951.584,475.191 v -4.211 c -0.811,-0.035 -1.561,-0.31 -2.179,-0.755 l -1.481,1.481 -0.744,-0.744 1.458,-1.458 c -0.535,-0.653 -0.868,-1.477 -0.907,-2.378 h -4.562 v -1.052 h 4.654 c 0.157,-0.709 0.502,-1.349 0.978,-1.863 l -1.621,-1.622 0.744,-0.744 1.69,1.691 c 0.575,-0.362 1.248,-0.583 1.97,-0.614 v -4.562 h 1.203 v 4.69 c 0.567,0.149 1.085,0.419 1.526,0.779 l 1.984,-1.984 0.744,0.744 -2.007,2.007 c 0.313,0.436 0.543,0.936 0.663,1.478 H 960 v 1.052 h -4.212 c -0.03,0.722 -0.251,1.395 -0.613,1.97 l 1.866,1.866 -0.744,0.744 -1.797,-1.797 c -0.478,0.443 -1.064,0.772 -1.713,0.942 v 4.34 z"
                 id="path814" />
            </g>
            <g
               id="Union_4">
              <path
                 d="m 859.013,441.529 v -4.212 c -0.811,-0.034 -1.561,-0.309 -2.179,-0.754 l -1.481,1.481 -0.744,-0.744 1.458,-1.458 c -0.535,-0.653 -0.869,-1.477 -0.907,-2.378 h -4.562 v -1.052 h 4.654 c 0.157,-0.71 0.501,-1.349 0.978,-1.864 l -1.621,-1.621 0.744,-0.744 1.69,1.691 c 0.575,-0.362 1.248,-0.583 1.97,-0.614 v -4.562 h 1.203 v 4.69 c 0.567,0.149 1.085,0.418 1.526,0.779 l 1.984,-1.984 0.744,0.744 -2.008,2.007 c 0.314,0.436 0.543,0.936 0.664,1.478 h 4.303 v 1.052 h -4.212 c -0.031,0.722 -0.251,1.395 -0.613,1.97 l 1.866,1.866 -0.744,0.744 -1.797,-1.797 c -0.478,0.443 -1.064,0.772 -1.713,0.942 v 4.34 z"
                 id="path817" />
            </g>
            <g
               id="star-9">
              <path
                 d="m 842.182,278.027 v -4.212 c -0.811,-0.035 -1.561,-0.309 -2.179,-0.755 l -1.481,1.481 -0.744,-0.744 1.458,-1.458 c -0.535,-0.653 -0.869,-1.477 -0.907,-2.377 h -4.562 v -1.052 h 4.654 c 0.157,-0.71 0.501,-1.349 0.978,-1.864 l -1.621,-1.621 0.744,-0.744 1.69,1.69 c 0.575,-0.362 1.248,-0.582 1.97,-0.613 v -4.563 h 1.202 v 4.691 c 0.568,0.149 1.086,0.418 1.526,0.779 l 1.985,-1.984 0.744,0.743 -2.008,2.008 c 0.314,0.435 0.543,0.936 0.663,1.478 h 4.304 v 1.052 h -4.212 c -0.031,0.722 -0.251,1.395 -0.613,1.97 l 1.866,1.866 -0.744,0.744 -1.797,-1.797 c -0.478,0.443 -1.064,0.771 -1.714,0.942 v 4.34 z"
                 id="path820" />
            </g>
            <g
               id="Union_5">
              <path
                 d="m 697.916,359.778 v -4.212 c -0.812,-0.034 -1.562,-0.309 -2.18,-0.755 l -1.481,1.481 -0.744,-0.743 1.458,-1.459 c -0.534,-0.653 -0.868,-1.477 -0.907,-2.377 H 689.5 v -1.052 h 4.654 c 0.157,-0.71 0.502,-1.349 0.979,-1.864 l -1.622,-1.621 0.744,-0.744 1.691,1.691 c 0.575,-0.362 1.247,-0.583 1.97,-0.614 v -4.562 h 1.202 v 4.69 c 0.567,0.149 1.085,0.418 1.526,0.779 l 1.984,-1.984 0.744,0.744 -2.007,2.007 c 0.314,0.435 0.543,0.936 0.663,1.478 h 4.303 v 1.052 h -4.211 c -0.031,0.722 -0.252,1.395 -0.614,1.97 l 1.866,1.866 -0.744,0.744 -1.797,-1.797 c -0.478,0.443 -1.064,0.772 -1.713,0.942 v 4.34 z"
                 id="path823" />
            </g>
            <g
               id="Union_6">
              <path
                 d="m 1071.81,-5.69785 v -4.21142 c -0.82,-0.03472 -1.56,-0.30943 -2.18,-0.75493 l -1.48,1.48108 -0.75,-0.74384 1.46,-1.45814 c -0.53,-0.6531 -0.87,-1.4771 -0.91,-2.3776 h -4.56 v -1.0519 h 4.66 c 0.15,-0.7097 0.5,-1.3491 0.97,-1.8637 l -1.62,-1.6215 0.75,-0.7438 1.69,1.6906 c 0.57,-0.362 1.24,-0.5828 1.97,-0.6137 v -4.5623 h 1.2 v 4.6905 c 0.57,0.1489 1.08,0.4182 1.52,0.7789 l 1.99,-1.9842 0.74,0.7438 -2,2.0072 c 0.31,0.4356 0.54,0.9364 0.66,1.4782 h 4.3 v 1.0519 h -4.21 c -0.03,0.7221 -0.25,1.395 -0.61,1.97 l 1.86,1.86594 -0.74,0.74384 -1.8,-1.79678 c -0.48,0.443 -1.06,0.7717 -1.71,0.9422 v 4.33965 z"
                 id="path826" />
            </g>
            <g
               id="Union_7">
              <path
                 d="m 1707.78,257.589 v -4.212 c -0.81,-0.034 -1.56,-0.309 -2.18,-0.754 l -1.48,1.481 -0.74,-0.744 1.46,-1.458 c -0.54,-0.653 -0.87,-1.477 -0.91,-2.378 h -4.56 v -1.052 h 4.65 c 0.16,-0.71 0.5,-1.349 0.98,-1.864 l -1.62,-1.621 0.74,-0.744 1.69,1.691 c 0.58,-0.362 1.25,-0.583 1.97,-0.614 v -4.562 h 1.2 v 4.69 c 0.57,0.149 1.09,0.418 1.53,0.779 l 1.98,-1.984 0.75,0.744 -2.01,2.007 c 0.32,0.436 0.54,0.936 0.66,1.478 h 4.31 v 1.052 h -4.21 c -0.03,0.722 -0.26,1.395 -0.62,1.97 l 1.87,1.866 -0.75,0.744 -1.79,-1.797 c -0.48,0.443 -1.07,0.772 -1.72,0.942 v 4.34 z"
                 id="path829" />
            </g>
            <g
               id="Union_8">
              <path
                 d="m 1199.24,305.678 v -4.212 c -0.81,-0.034 -1.56,-0.309 -2.18,-0.755 l -1.48,1.481 -0.74,-0.743 1.46,-1.458 c -0.54,-0.654 -0.87,-1.478 -0.91,-2.378 h -4.56 v -1.052 h 4.65 c 0.16,-0.71 0.5,-1.349 0.98,-1.864 l -1.62,-1.621 0.74,-0.744 1.69,1.691 c 0.58,-0.362 1.25,-0.583 1.97,-0.614 v -4.562 h 1.2 v 4.69 c 0.57,0.149 1.09,0.418 1.53,0.779 l 1.98,-1.984 0.75,0.744 -2.01,2.007 c 0.32,0.435 0.54,0.936 0.66,1.478 h 4.31 v 1.052 h -4.21 c -0.03,0.722 -0.26,1.395 -0.62,1.97 l 1.87,1.866 -0.75,0.744 -1.79,-1.797 c -0.48,0.443 -1.07,0.772 -1.72,0.942 v 4.34 z"
                 id="path832" />
            </g>
            <g
               id="Union_9">
              <path
                 d="M 614.962,375.407 V 373 c -0.464,-0.02 -0.892,-0.177 -1.245,-0.431 l -0.847,0.846 -0.425,-0.425 0.834,-0.833 c -0.306,-0.373 -0.497,-0.844 -0.519,-1.359 h -2.607 v -0.601 h 2.66 c 0.09,-0.406 0.286,-0.771 0.559,-1.065 l -0.927,-0.927 0.425,-0.425 0.967,0.966 c 0.328,-0.206 0.713,-0.333 1.125,-0.35 v -2.607 h 0.687 v 2.68 c 0.324,0.085 0.62,0.239 0.872,0.445 l 1.134,-1.134 0.425,0.425 -1.147,1.147 c 0.18,0.249 0.31,0.535 0.379,0.845 h 2.459 v 0.601 h -2.406 c -0.018,0.413 -0.144,0.797 -0.351,1.126 l 1.066,1.066 -0.425,0.425 -1.027,-1.027 c -0.273,0.254 -0.608,0.441 -0.979,0.539 v 2.48 z"
                 id="path835" />
            </g>
            <g
               id="Union_10">
              <path
                 d="m 562.064,151.793 v -2.406 c -0.463,-0.02 -0.892,-0.177 -1.245,-0.432 l -0.846,0.847 -0.425,-0.425 0.833,-0.834 c -0.306,-0.373 -0.496,-0.844 -0.519,-1.358 h -2.606 v -0.601 h 2.659 c 0.09,-0.406 0.287,-0.771 0.559,-1.065 l -0.926,-0.927 0.425,-0.425 0.966,0.966 c 0.328,-0.207 0.713,-0.333 1.125,-0.351 v -2.607 h 0.687 v 2.681 c 0.324,0.085 0.621,0.239 0.872,0.445 l 1.134,-1.134 0.425,0.425 -1.147,1.147 c 0.18,0.249 0.311,0.535 0.379,0.845 h 2.459 v 0.601 h -2.406 c -0.018,0.412 -0.144,0.797 -0.351,1.125 l 1.066,1.067 -0.425,0.425 -1.026,-1.027 c -0.274,0.253 -0.608,0.441 -0.98,0.538 v 2.48 z"
                 id="path838" />
            </g>
            <g
               id="star-10">
              <path
                 d="m 324.024,707.22 v -2.407 c -0.463,-0.019 -0.892,-0.176 -1.245,-0.431 l -0.846,0.846 -0.425,-0.425 0.833,-0.833 c -0.306,-0.373 -0.497,-0.844 -0.519,-1.359 h -2.606 v -0.601 h 2.659 c 0.09,-0.405 0.287,-0.771 0.559,-1.065 l -0.926,-0.926 0.425,-0.425 0.966,0.966 c 0.328,-0.207 0.713,-0.333 1.125,-0.351 v -2.607 h 0.687 v 2.68 c 0.324,0.086 0.621,0.239 0.872,0.446 l 1.134,-1.134 0.425,0.425 -1.147,1.147 c 0.18,0.249 0.311,0.535 0.379,0.844 h 2.459 v 0.601 h -2.406 c -0.018,0.413 -0.144,0.798 -0.351,1.126 l 1.066,1.066 -0.425,0.425 -1.026,-1.026 c -0.274,0.253 -0.608,0.441 -0.98,0.538 v 2.48 z"
                 id="path841" />
            </g>
            <g
               id="Union_11">
              <path
                 d="m 149.702,357.373 v -2.406 c -0.464,-0.02 -0.892,-0.177 -1.245,-0.432 l -0.847,0.847 -0.425,-0.425 0.834,-0.834 c -0.306,-0.373 -0.497,-0.844 -0.519,-1.358 h -2.607 v -0.601 h 2.66 c 0.09,-0.406 0.286,-0.771 0.559,-1.065 l -0.927,-0.927 0.425,-0.425 0.966,0.966 c 0.329,-0.207 0.714,-0.333 1.126,-0.351 v -2.607 h 0.687 v 2.681 c 0.324,0.085 0.62,0.239 0.872,0.445 l 1.134,-1.134 0.425,0.425 -1.147,1.147 c 0.179,0.249 0.31,0.535 0.379,0.845 h 2.459 v 0.601 h -2.407 c -0.017,0.412 -0.143,0.797 -0.35,1.125 l 1.066,1.067 -0.425,0.425 -1.027,-1.027 c -0.273,0.253 -0.608,0.441 -0.979,0.538 v 2.48 z"
                 id="path844" />
            </g>
            <g
               id="Union_12">
              <path
                 d="m 859.013,334.531 v -2.406 c -0.463,-0.02 -0.892,-0.177 -1.245,-0.432 l -0.846,0.846 -0.425,-0.425 0.833,-0.833 c -0.306,-0.373 -0.497,-0.844 -0.519,-1.358 h -2.607 v -0.602 h 2.66 c 0.09,-0.405 0.287,-0.77 0.559,-1.065 l -0.926,-0.926 0.425,-0.425 0.966,0.966 c 0.328,-0.207 0.713,-0.333 1.125,-0.351 v -2.607 h 0.687 v 2.681 c 0.324,0.085 0.621,0.239 0.872,0.445 l 1.134,-1.134 0.425,0.425 -1.147,1.147 c 0.18,0.249 0.311,0.535 0.379,0.844 h 2.459 v 0.602 h -2.406 c -0.018,0.412 -0.144,0.797 -0.351,1.125 l 1.066,1.067 -0.425,0.425 -1.027,-1.027 c -0.273,0.253 -0.607,0.441 -0.979,0.538 v 2.48 z"
                 id="path847" />
            </g>
            <g
               id="Union_13">
              <path
                 d="m 1075.41,451.147 v -2.407 c -0.46,-0.02 -0.89,-0.177 -1.24,-0.431 l -0.85,0.846 -0.42,-0.425 0.83,-0.833 c -0.31,-0.373 -0.5,-0.844 -0.52,-1.359 h -2.61 v -0.601 h 2.66 c 0.09,-0.406 0.29,-0.771 0.56,-1.065 l -0.92,-0.927 0.42,-0.425 0.97,0.966 c 0.33,-0.206 0.71,-0.333 1.12,-0.35 v -2.607 h 0.69 v 2.68 c 0.32,0.085 0.62,0.239 0.87,0.445 l 1.14,-1.134 0.42,0.425 -1.15,1.147 c 0.18,0.249 0.31,0.535 0.38,0.845 h 2.46 v 0.601 h -2.4 c -0.02,0.413 -0.15,0.797 -0.36,1.126 l 1.07,1.066 -0.42,0.425 -1.03,-1.027 c -0.27,0.254 -0.61,0.441 -0.98,0.539 v 2.48 z"
                 id="path850" />
            </g>
            <g
               id="Union_14">
              <path
                 d="m 1036.94,518.471 v -2.406 c -0.46,-0.02 -0.89,-0.177 -1.24,-0.432 l -0.85,0.846 -0.42,-0.425 0.83,-0.833 c -0.31,-0.373 -0.5,-0.844 -0.52,-1.358 h -2.61 v -0.602 h 2.66 c 0.09,-0.405 0.29,-0.77 0.56,-1.065 l -0.92,-0.926 0.42,-0.425 0.97,0.966 c 0.33,-0.207 0.71,-0.333 1.12,-0.351 v -2.607 h 0.69 v 2.681 c 0.32,0.085 0.62,0.239 0.87,0.445 l 1.14,-1.134 0.42,0.425 -1.15,1.147 c 0.18,0.249 0.31,0.535 0.38,0.844 h 2.46 v 0.602 h -2.41 c -0.01,0.412 -0.14,0.797 -0.35,1.125 l 1.07,1.067 -0.42,0.425 -1.03,-1.027 c -0.27,0.253 -0.61,0.441 -0.98,0.538 v 2.48 z"
                 id="path853" />
            </g>
            <g
               id="Union_15">
              <path
                 d="m 911.911,401.856 v -2.407 c -0.464,-0.02 -0.892,-0.177 -1.245,-0.431 l -0.847,0.846 -0.425,-0.425 0.834,-0.833 c -0.306,-0.374 -0.497,-0.844 -0.519,-1.359 h -2.607 v -0.601 h 2.66 c 0.09,-0.406 0.286,-0.771 0.559,-1.065 l -0.927,-0.927 0.425,-0.425 0.966,0.966 c 0.329,-0.206 0.714,-0.333 1.126,-0.35 v -2.607 h 0.687 v 2.68 c 0.324,0.085 0.62,0.239 0.872,0.445 l 1.134,-1.134 0.425,0.425 -1.147,1.147 c 0.179,0.249 0.31,0.535 0.379,0.845 h 2.459 v 0.601 h -2.407 c -0.017,0.413 -0.143,0.797 -0.35,1.126 l 1.066,1.066 -0.425,0.425 -1.027,-1.027 c -0.273,0.253 -0.608,0.441 -0.979,0.539 v 2.48 z"
                 id="path856" />
            </g>
            <g
               id="Union_16">
              <path
                 d="m 1375.97,475.191 v -2.407 c -0.46,-0.019 -0.89,-0.176 -1.25,-0.431 l -0.84,0.846 -0.43,-0.425 0.84,-0.833 c -0.31,-0.373 -0.5,-0.844 -0.52,-1.358 h -2.61 v -0.602 h 2.66 c 0.09,-0.405 0.29,-0.77 0.56,-1.065 l -0.93,-0.926 0.43,-0.425 0.96,0.966 c 0.33,-0.207 0.72,-0.333 1.13,-0.351 v -2.607 h 0.69 v 2.681 c 0.32,0.085 0.62,0.238 0.87,0.445 l 1.13,-1.134 0.43,0.425 -1.15,1.147 c 0.18,0.249 0.31,0.535 0.38,0.844 h 2.46 v 0.602 h -2.41 c -0.02,0.412 -0.14,0.797 -0.35,1.125 l 1.07,1.066 -0.43,0.426 -1.02,-1.027 c -0.28,0.253 -0.61,0.441 -0.98,0.538 v 2.48 z"
                 id="path859" />
            </g>
            <g
               id="Union_17">
              <path
                 d="m 1627.23,112.12 v -2.407 c -0.46,-0.019 -0.89,-0.176 -1.24,-0.431 l -0.85,0.846 -0.42,-0.425 0.83,-0.833 c -0.31,-0.373 -0.5,-0.844 -0.52,-1.359 h -2.61 v -0.601 h 2.66 c 0.09,-0.405 0.29,-0.771 0.56,-1.065 l -0.92,-0.926 0.42,-0.425 0.97,0.966 c 0.33,-0.207 0.71,-0.333 1.12,-0.351 v -2.607 h 0.69 v 2.68 c 0.32,0.086 0.62,0.239 0.87,0.446 l 1.14,-1.134 0.42,0.425 -1.15,1.147 c 0.18,0.249 0.31,0.535 0.38,0.844 h 2.46 v 0.601 h -2.4 c -0.02,0.413 -0.15,0.798 -0.36,1.126 l 1.07,1.066 -0.42,0.425 -1.03,-1.026 c -0.27,0.253 -0.61,0.441 -0.98,0.538 v 2.48 z"
                 id="path862" />
            </g>
            <g
               id="Union_18">
              <path
                 d="m 1627.23,161.411 v -2.406 c -0.46,-0.02 -0.89,-0.177 -1.24,-0.432 l -0.85,0.846 -0.42,-0.425 0.83,-0.833 c -0.31,-0.373 -0.5,-0.844 -0.52,-1.358 h -2.61 v -0.602 h 2.66 c 0.09,-0.405 0.29,-0.77 0.56,-1.065 l -0.92,-0.926 0.42,-0.425 0.97,0.966 c 0.33,-0.207 0.71,-0.333 1.12,-0.351 v -2.607 h 0.69 v 2.681 c 0.32,0.085 0.62,0.239 0.87,0.445 l 1.14,-1.134 0.42,0.425 -1.15,1.147 c 0.18,0.249 0.31,0.535 0.38,0.844 h 2.46 v 0.602 h -2.4 c -0.02,0.412 -0.15,0.797 -0.36,1.125 l 1.07,1.067 -0.42,0.425 -1.03,-1.027 c -0.27,0.253 -0.61,0.441 -0.98,0.538 v 2.48 z"
                 id="path865" />
            </g>
            <g
               id="Union_19">
              <path
                 d="m 1467.34,357.373 v -2.406 c -0.47,-0.02 -0.89,-0.177 -1.25,-0.432 l -0.84,0.847 -0.43,-0.425 0.83,-0.834 c -0.3,-0.373 -0.49,-0.844 -0.51,-1.358 h -2.61 v -0.601 h 2.66 c 0.09,-0.406 0.29,-0.771 0.56,-1.065 l -0.93,-0.927 0.43,-0.425 0.96,0.966 c 0.33,-0.207 0.72,-0.333 1.13,-0.351 v -2.607 h 0.68 v 2.681 c 0.33,0.085 0.63,0.239 0.88,0.445 l 1.13,-1.134 0.43,0.425 -1.15,1.147 c 0.18,0.249 0.31,0.535 0.38,0.845 h 2.46 v 0.601 h -2.41 c -0.02,0.412 -0.14,0.797 -0.35,1.125 l 1.07,1.067 -0.43,0.425 -1.03,-1.027 c -0.27,0.253 -0.6,0.441 -0.98,0.538 v 2.48 z"
                 id="path868" />
            </g>
            <g
               id="Union_20">
              <path
                 d="m 1646.47,680.771 v -2.406 c -0.46,-0.02 -0.89,-0.177 -1.25,-0.432 l -0.84,0.846 -0.43,-0.425 0.84,-0.833 c -0.31,-0.373 -0.5,-0.844 -0.52,-1.358 h -2.61 v -0.602 h 2.66 c 0.09,-0.405 0.29,-0.77 0.56,-1.065 l -0.93,-0.926 0.43,-0.425 0.96,0.966 c 0.33,-0.207 0.72,-0.333 1.13,-0.351 v -2.607 h 0.69 v 2.681 c 0.32,0.085 0.62,0.239 0.87,0.445 l 1.13,-1.134 0.43,0.425 -1.15,1.147 c 0.18,0.249 0.31,0.535 0.38,0.844 h 2.46 v 0.602 h -2.41 c -0.02,0.412 -0.14,0.797 -0.35,1.125 l 1.07,1.067 -0.43,0.425 -1.02,-1.027 c -0.28,0.253 -0.61,0.441 -0.98,0.538 v 2.48 z"
                 id="path871" />
            </g>
            <g
               id="Union_21">
              <path
                 d="m 1280.99,915.204 v -2.406 c -0.46,-0.02 -0.89,-0.177 -1.24,-0.431 l -0.85,0.846 -0.42,-0.425 0.83,-0.833 c -0.31,-0.374 -0.5,-0.845 -0.52,-1.359 h -2.61 v -0.601 h 2.66 c 0.09,-0.406 0.29,-0.771 0.56,-1.065 l -0.92,-0.927 0.42,-0.425 0.97,0.966 c 0.33,-0.207 0.71,-0.333 1.12,-0.35 v -2.607 h 0.69 v 2.68 c 0.32,0.085 0.62,0.239 0.87,0.445 l 1.14,-1.134 0.42,0.425 -1.15,1.147 c 0.18,0.249 0.31,0.535 0.38,0.845 h 2.46 v 0.601 h -2.4 c -0.02,0.413 -0.15,0.797 -0.36,1.126 l 1.07,1.066 -0.42,0.425 -1.03,-1.027 c -0.27,0.253 -0.61,0.441 -0.98,0.539 v 2.479 z"
                 id="path874" />
            </g>
            <g
               id="Union_22">
              <path
                 d="m 689.5,707.22 v -2.407 c -0.464,-0.019 -0.892,-0.176 -1.245,-0.431 l -0.847,0.846 -0.425,-0.425 0.833,-0.833 c -0.305,-0.373 -0.496,-0.844 -0.518,-1.359 h -2.607 v -0.601 h 2.659 c 0.09,-0.405 0.287,-0.771 0.56,-1.065 l -0.927,-0.926 0.425,-0.425 0.966,0.966 c 0.329,-0.207 0.713,-0.333 1.126,-0.351 v -2.607 h 0.687 v 2.68 c 0.324,0.086 0.62,0.239 0.872,0.446 l 1.134,-1.134 0.425,0.425 -1.147,1.147 c 0.179,0.249 0.31,0.535 0.379,0.844 h 2.459 v 0.601 h -2.407 c -0.017,0.413 -0.144,0.798 -0.35,1.126 l 1.066,1.066 -0.425,0.425 -1.027,-1.026 c -0.273,0.253 -0.608,0.441 -0.979,0.538 v 2.48 z"
                 id="path877" />
            </g>
            <g
               id="Union_23">
              <path
                 d="m 717.151,475.191 v -2.407 c -0.464,-0.019 -0.892,-0.176 -1.245,-0.431 l -0.847,0.846 -0.425,-0.425 0.834,-0.833 c -0.306,-0.373 -0.497,-0.844 -0.519,-1.358 h -2.607 v -0.602 h 2.66 c 0.09,-0.405 0.286,-0.77 0.559,-1.065 l -0.927,-0.926 0.425,-0.425 0.966,0.966 c 0.329,-0.207 0.713,-0.333 1.126,-0.351 v -2.607 h 0.687 v 2.681 c 0.324,0.085 0.62,0.238 0.872,0.445 l 1.134,-1.134 0.425,0.425 -1.147,1.147 c 0.179,0.249 0.31,0.535 0.379,0.844 h 2.459 v 0.602 h -2.407 c -0.017,0.412 -0.143,0.797 -0.35,1.125 l 1.066,1.066 -0.425,0.426 -1.027,-1.027 c -0.273,0.253 -0.608,0.441 -0.979,0.538 v 2.48 z"
                 id="path880" />
            </g>
            <g
               id="Union_24">
              <path
                 d="m 492.336,347.756 v -2.407 c -0.464,-0.02 -0.893,-0.177 -1.246,-0.431 l -0.846,0.846 -0.425,-0.425 0.833,-0.833 c -0.306,-0.374 -0.496,-0.844 -0.518,-1.359 h -2.607 v -0.601 h 2.659 c 0.09,-0.406 0.287,-0.771 0.559,-1.065 l -0.926,-0.927 0.425,-0.425 0.966,0.966 c 0.328,-0.206 0.713,-0.333 1.126,-0.35 v -2.607 h 0.687 v 2.68 c 0.324,0.085 0.62,0.239 0.872,0.445 l 1.133,-1.134 0.425,0.425 -1.146,1.147 c 0.179,0.249 0.31,0.535 0.378,0.845 h 2.459 v 0.601 h -2.406 c -0.018,0.413 -0.144,0.797 -0.351,1.126 l 1.066,1.066 -0.425,0.425 -1.026,-1.027 c -0.274,0.253 -0.608,0.441 -0.979,0.539 v 2.48 z"
                 id="path883" />
            </g>
            <g
               id="Union_25">
              <path
                 d="m 726.769,78.4577 v -2.4065 c -0.464,-0.0198 -0.892,-0.1768 -1.246,-0.4314 l -0.846,0.8463 -0.425,-0.425 0.833,-0.8332 c -0.305,-0.3732 -0.496,-0.8441 -0.518,-1.3586 h -2.607 v -0.6012 h 2.659 c 0.09,-0.4055 0.287,-0.7709 0.56,-1.065 l -0.927,-0.9265 0.425,-0.425 0.966,0.966 c 0.329,-0.2069 0.713,-0.333 1.126,-0.3507 v -2.607 h 0.687 v 2.6803 c 0.324,0.0851 0.62,0.239 0.872,0.4451 l 1.134,-1.1339 0.425,0.4251 -1.147,1.147 c 0.179,0.2489 0.31,0.5351 0.379,0.8446 h 2.459 v 0.6012 h -2.407 c -0.017,0.4126 -0.144,0.7971 -0.35,1.1256 l 1.066,1.0663 -0.425,0.425 -1.027,-1.0267 c -0.273,0.2532 -0.608,0.441 -0.979,0.5384 v 2.4798 z"
                 id="path886" />
            </g>
            <g
               id="Union_26">
              <path
                 d="m 191.78,78.4577 v -2.4065 c -0.464,-0.0198 -0.892,-0.1768 -1.245,-0.4314 l -0.847,0.8463 -0.425,-0.425 0.833,-0.8332 c -0.305,-0.3732 -0.496,-0.8441 -0.518,-1.3586 h -2.607 v -0.6012 h 2.659 c 0.09,-0.4055 0.287,-0.7709 0.56,-1.065 l -0.927,-0.9265 0.425,-0.425 0.966,0.966 c 0.329,-0.2069 0.713,-0.333 1.126,-0.3507 v -2.607 h 0.687 v 2.6803 c 0.324,0.0851 0.62,0.239 0.872,0.4451 l 1.134,-1.1339 0.425,0.4251 -1.147,1.147 c 0.179,0.2489 0.31,0.5351 0.379,0.8446 h 2.459 v 0.6012 h -2.407 c -0.017,0.4125 -0.144,0.797 -0.35,1.1256 l 1.066,1.0663 -0.425,0.425 -1.027,-1.0267 c -0.273,0.2532 -0.608,0.4409 -0.979,0.5384 v 2.4798 z"
                 id="path889" />
            </g>
            <g
               id="Union_27">
              <path
                 d="m 482.718,496.831 v -2.406 c -0.464,-0.02 -0.892,-0.177 -1.246,-0.432 l -0.846,0.846 -0.425,-0.425 0.833,-0.833 c -0.305,-0.373 -0.496,-0.844 -0.518,-1.358 h -2.607 v -0.602 h 2.659 c 0.09,-0.405 0.287,-0.77 0.56,-1.065 l -0.927,-0.926 0.425,-0.425 0.966,0.966 c 0.329,-0.207 0.713,-0.333 1.126,-0.351 v -2.607 h 0.687 v 2.681 c 0.324,0.085 0.62,0.238 0.872,0.445 l 1.134,-1.134 0.425,0.425 -1.147,1.147 c 0.179,0.249 0.31,0.535 0.379,0.844 h 2.459 v 0.602 h -2.407 c -0.018,0.412 -0.144,0.797 -0.351,1.125 l 1.067,1.067 -0.425,0.425 -1.027,-1.027 c -0.273,0.253 -0.608,0.441 -0.979,0.538 v 2.48 z"
                 id="path892" />
            </g>
            <g
               id="Union_28">
              <path
                 d="m 714.747,693.996 v -2.407 c -0.464,-0.02 -0.892,-0.177 -1.246,-0.431 l -0.846,0.846 -0.425,-0.425 0.833,-0.833 c -0.305,-0.374 -0.496,-0.844 -0.518,-1.359 h -2.607 v -0.601 h 2.659 c 0.09,-0.406 0.287,-0.771 0.559,-1.065 l -0.926,-0.927 0.425,-0.425 0.966,0.966 c 0.329,-0.206 0.713,-0.333 1.126,-0.35 v -2.607 h 0.687 v 2.68 c 0.324,0.085 0.62,0.239 0.872,0.445 l 1.134,-1.134 0.425,0.425 -1.147,1.147 c 0.179,0.249 0.31,0.535 0.379,0.845 h 2.459 v 0.601 h -2.407 c -0.018,0.413 -0.144,0.797 -0.351,1.126 l 1.067,1.066 -0.425,0.425 -1.027,-1.027 c -0.273,0.253 -0.608,0.441 -0.979,0.539 v 2.48 z"
                 id="path895" />
            </g>
            <g
               id="Union_29">
              <path
                 d="m 957.596,385.024 v -2.406 c -0.464,-0.02 -0.893,-0.177 -1.246,-0.431 l -0.846,0.846 -0.425,-0.425 0.833,-0.833 c -0.306,-0.374 -0.496,-0.845 -0.518,-1.359 h -2.607 v -0.601 h 2.659 c 0.09,-0.406 0.287,-0.771 0.559,-1.065 l -0.926,-0.927 0.425,-0.425 0.966,0.966 c 0.328,-0.207 0.713,-0.333 1.126,-0.35 v -2.607 h 0.687 v 2.68 c 0.324,0.085 0.62,0.239 0.872,0.445 l 1.133,-1.134 0.425,0.425 -1.147,1.147 c 0.18,0.249 0.311,0.535 0.379,0.845 h 2.459 v 0.601 h -2.406 c -0.018,0.413 -0.144,0.797 -0.351,1.126 l 1.066,1.066 -0.425,0.425 -1.026,-1.027 c -0.274,0.253 -0.608,0.441 -0.979,0.539 v 2.479 z"
                 id="path898" />
            </g>
            <g
               id="Union_30">
              <path
                 d="m 736.387,223.927 v -2.407 c -0.464,-0.02 -0.893,-0.177 -1.246,-0.431 l -0.846,0.846 -0.425,-0.425 0.833,-0.833 c -0.306,-0.373 -0.496,-0.844 -0.518,-1.359 h -2.607 v -0.601 h 2.659 c 0.09,-0.406 0.287,-0.771 0.559,-1.065 l -0.926,-0.926 0.425,-0.426 0.966,0.967 c 0.329,-0.207 0.713,-0.334 1.126,-0.351 v -2.607 h 0.687 v 2.68 c 0.324,0.085 0.62,0.239 0.872,0.445 l 1.133,-1.134 0.426,0.425 -1.147,1.147 c 0.179,0.249 0.31,0.535 0.378,0.845 h 2.46 v 0.601 h -2.407 c -0.018,0.413 -0.144,0.797 -0.351,1.126 l 1.067,1.066 -0.426,0.425 -1.026,-1.027 c -0.273,0.254 -0.608,0.441 -0.979,0.539 v 2.48 z"
                 id="path901" />
            </g>
            <g
               id="Union_31">
              <path
                 d="m 746.004,190.264 v -2.406 c -0.463,-0.02 -0.892,-0.177 -1.245,-0.431 l -0.846,0.846 -0.425,-0.425 0.833,-0.833 c -0.306,-0.374 -0.497,-0.845 -0.519,-1.359 h -2.606 v -0.601 h 2.659 c 0.09,-0.406 0.287,-0.771 0.559,-1.065 l -0.926,-0.927 0.425,-0.425 0.966,0.966 c 0.328,-0.207 0.713,-0.333 1.125,-0.35 v -2.607 h 0.687 v 2.68 c 0.324,0.085 0.621,0.239 0.872,0.445 l 1.134,-1.134 0.425,0.425 -1.147,1.147 c 0.18,0.249 0.311,0.535 0.379,0.845 h 2.459 v 0.601 h -2.406 c -0.018,0.413 -0.144,0.797 -0.351,1.126 l 1.066,1.066 -0.425,0.425 -1.026,-1.027 c -0.274,0.253 -0.608,0.441 -0.98,0.539 v 2.479 z"
                 id="path904" />
            </g>
            <g
               id="Union_32">
              <path
                 d="m 938.36,54.4133 v -2.4065 c -0.464,-0.0199 -0.892,-0.1768 -1.245,-0.4314 l -0.847,0.8463 -0.425,-0.4251 0.833,-0.8331 c -0.305,-0.3733 -0.496,-0.8441 -0.518,-1.3587 h -2.607 v -0.6011 h 2.659 c 0.09,-0.4055 0.287,-0.7709 0.56,-1.065 l -0.927,-0.9265 0.425,-0.4251 0.966,0.9661 c 0.329,-0.2069 0.713,-0.333 1.126,-0.3507 v -2.607 h 0.687 v 2.6803 c 0.324,0.0851 0.62,0.2389 0.872,0.4451 l 1.134,-1.1339 0.425,0.4251 -1.147,1.1469 c 0.179,0.249 0.31,0.5351 0.379,0.8447 h 2.459 v 0.6011 h -2.407 c -0.017,0.4126 -0.144,0.7971 -0.35,1.1257 l 1.066,1.0663 -0.425,0.425 -1.027,-1.0267 c -0.273,0.2531 -0.608,0.4409 -0.979,0.5384 v 2.4798 z"
                 id="path907" />
            </g>
            <g
               id="Union_33">
              <path
                 d="m 808.52,78.4577 v -2.4065 c -0.464,-0.0198 -0.892,-0.1768 -1.245,-0.4314 l -0.847,0.8463 -0.425,-0.425 0.833,-0.8332 c -0.305,-0.3732 -0.496,-0.8441 -0.518,-1.3586 h -2.607 v -0.6012 h 2.66 c 0.089,-0.4055 0.286,-0.7709 0.559,-1.065 l -0.927,-0.9265 0.425,-0.425 0.966,0.966 c 0.329,-0.2069 0.713,-0.333 1.126,-0.3507 v -2.607 h 0.687 v 2.6803 c 0.324,0.0851 0.62,0.239 0.872,0.4451 l 1.134,-1.1339 0.425,0.4251 -1.147,1.147 c 0.179,0.2489 0.31,0.5351 0.379,0.8446 h 2.459 v 0.6012 h -2.407 c -0.017,0.4126 -0.144,0.7971 -0.35,1.1256 l 1.066,1.0663 -0.425,0.425 -1.027,-1.0267 c -0.273,0.2532 -0.608,0.441 -0.979,0.5384 v 2.4798 z"
                 id="path910" />
            </g>
            <g
               id="Union_34">
              <path
                 d="M 721.96,3.91993 V 1.51341 c -0.464,-0.01983 -0.892,-0.17679 -1.245,-0.43136 l -0.847,0.84629 -0.425,-0.42505 0.833,-0.83318 c -0.305,-0.37321 -0.496,-0.84406 -0.518,-1.35863 h -2.607 v -0.60111 h 2.66 c 0.089,-0.40554 0.286,-0.7709 0.559,-1.06499 l -0.927,-0.92653 0.425,-0.42505 0.966,0.96603 c 0.329,-0.20685 0.713,-0.33301 1.126,-0.35065 v -2.60702 h 0.687 v 2.68027 c 0.324,0.08509 0.62,0.23898 0.872,0.44511 l 1.134,-1.13386 0.425,0.42504 -1.147,1.14698 c 0.179,0.24892 0.31,0.53508 0.379,0.84467 h 2.459 v 0.60111 h -2.407 c -0.017,0.4126 -0.144,0.7971 -0.35,1.12569 l 1.066,1.06626 -0.425,0.42505 -1.027,-1.02675 c -0.273,0.25318 -0.608,0.44096 -0.979,0.53844 v 2.47977 z"
                 id="path913" />
            </g>
            <g
               id="Union_35">
              <path
                 d="m 902.293,151.793 v -2.406 c -0.464,-0.02 -0.892,-0.177 -1.245,-0.432 l -0.846,0.847 -0.425,-0.425 0.833,-0.834 c -0.306,-0.373 -0.497,-0.844 -0.519,-1.358 h -2.607 v -0.601 h 2.66 c 0.09,-0.406 0.286,-0.771 0.559,-1.065 l -0.926,-0.927 0.425,-0.425 0.966,0.966 c 0.328,-0.207 0.713,-0.333 1.125,-0.351 v -2.607 h 0.687 v 2.681 c 0.324,0.085 0.621,0.239 0.872,0.445 l 1.134,-1.134 0.425,0.425 -1.147,1.147 c 0.18,0.249 0.311,0.535 0.379,0.845 h 2.459 v 0.601 h -2.406 c -0.018,0.412 -0.144,0.797 -0.351,1.125 l 1.066,1.067 -0.425,0.425 -1.027,-1.027 c -0.273,0.253 -0.607,0.441 -0.979,0.538 v 2.48 z"
                 id="path916" />
            </g>
            <g
               id="Union_36">
              <path
                 d="m 1067,173.433 v -2.406 c -0.47,-0.02 -0.89,-0.177 -1.25,-0.432 l -0.84,0.847 -0.43,-0.425 0.83,-0.834 c -0.3,-0.373 -0.49,-0.844 -0.51,-1.358 h -2.61 v -0.601 h 2.66 c 0.09,-0.406 0.28,-0.771 0.56,-1.065 l -0.93,-0.927 0.43,-0.425 0.96,0.966 c 0.33,-0.207 0.72,-0.333 1.13,-0.35 v -2.608 h 0.68 v 2.681 c 0.33,0.085 0.63,0.239 0.88,0.445 l 1.13,-1.134 0.43,0.425 -1.15,1.147 c 0.18,0.249 0.31,0.535 0.38,0.845 h 2.46 v 0.601 h -2.41 c -0.02,0.412 -0.14,0.797 -0.35,1.125 l 1.07,1.067 -0.43,0.425 -1.03,-1.027 c -0.27,0.253 -0.6,0.441 -0.98,0.538 v 2.48 z"
                 id="path919" />
            </g>
            <g
               id="Union_37">
              <path
                 d="m 1143.94,102.502 v -2.406 c -0.46,-0.02 -0.89,-0.1771 -1.25,-0.4317 l -0.84,0.8467 -0.43,-0.425 0.84,-0.8336 c -0.31,-0.3733 -0.5,-0.8441 -0.52,-1.3587 h -2.61 v -0.6011 h 2.66 c 0.09,-0.4055 0.29,-0.7709 0.56,-1.065 l -0.93,-0.9265 0.43,-0.4251 0.96,0.9661 c 0.33,-0.2069 0.72,-0.333 1.13,-0.3507 v -2.607 h 0.69 v 2.6803 c 0.32,0.0851 0.62,0.2389 0.87,0.4451 l 1.13,-1.1339 0.43,0.4251 -1.15,1.1469 c 0.18,0.249 0.31,0.5351 0.38,0.8447 h 2.46 v 0.6011 h -2.41 c -0.02,0.4126 -0.14,0.7971 -0.35,1.1257 l 1.07,1.0666 -0.43,0.425 -1.02,-1.027 c -0.28,0.2531 -0.61,0.4409 -0.98,0.538 v 2.48 z"
                 id="path922" />
            </g>
            <g
               id="Union_38">
              <path
                 d="m 1130.72,240.758 v -2.407 c -0.47,-0.02 -0.9,-0.177 -1.25,-0.431 l -0.85,0.846 -0.42,-0.425 0.83,-0.833 c -0.3,-0.373 -0.49,-0.844 -0.52,-1.359 h -2.6 v -0.601 h 2.66 c 0.09,-0.405 0.28,-0.771 0.56,-1.065 l -0.93,-0.926 0.42,-0.425 0.97,0.966 c 0.33,-0.207 0.71,-0.333 1.13,-0.351 v -2.607 h 0.68 v 2.68 c 0.33,0.085 0.62,0.239 0.87,0.445 l 1.14,-1.134 0.42,0.426 -1.14,1.146 c 0.18,0.249 0.31,0.536 0.38,0.845 h 2.45 v 0.601 h -2.4 c -0.02,0.413 -0.15,0.797 -0.35,1.126 l 1.06,1.066 -0.42,0.425 -1.03,-1.026 c -0.27,0.253 -0.61,0.44 -0.98,0.538 v 2.48 z"
                 id="path925" />
            </g>
            <g
               id="Union_39">
              <path
                 d="m 1106.67,351.362 v -2.406 c -0.46,-0.02 -0.89,-0.177 -1.24,-0.432 l -0.85,0.847 -0.43,-0.425 0.84,-0.834 c -0.31,-0.373 -0.5,-0.844 -0.52,-1.358 h -2.61 v -0.601 h 2.66 c 0.09,-0.406 0.29,-0.771 0.56,-1.065 l -0.93,-0.927 0.43,-0.425 0.97,0.966 c 0.32,-0.207 0.71,-0.333 1.12,-0.351 v -2.607 h 0.69 v 2.681 c 0.32,0.085 0.62,0.239 0.87,0.445 l 1.13,-1.134 0.43,0.425 -1.15,1.147 c 0.18,0.249 0.31,0.535 0.38,0.845 h 2.46 v 0.601 h -2.41 c -0.01,0.412 -0.14,0.797 -0.35,1.125 l 1.07,1.067 -0.43,0.425 -1.02,-1.027 c -0.28,0.253 -0.61,0.441 -0.98,0.538 v 2.48 z"
                 id="path928" />
            </g>
            <g
               id="Union_40">
              <path
                 d="m 1285.8,282.835 v -2.406 c -0.46,-0.02 -0.89,-0.177 -1.24,-0.431 l -0.85,0.846 -0.42,-0.425 0.83,-0.833 c -0.31,-0.374 -0.5,-0.844 -0.52,-1.359 h -2.61 v -0.601 h 2.66 c 0.09,-0.406 0.29,-0.771 0.56,-1.065 l -0.92,-0.927 0.42,-0.425 0.97,0.966 c 0.33,-0.206 0.71,-0.333 1.12,-0.35 v -2.607 h 0.69 v 2.68 c 0.32,0.085 0.62,0.239 0.87,0.445 l 1.14,-1.134 0.42,0.425 -1.15,1.147 c 0.18,0.249 0.31,0.535 0.38,0.845 h 2.46 v 0.601 h -2.41 c -0.01,0.413 -0.14,0.797 -0.35,1.126 l 1.07,1.066 -0.42,0.425 -1.03,-1.027 c -0.27,0.253 -0.61,0.441 -0.98,0.539 v 2.479 z"
                 id="path931" />
            </g>
            <g
               id="Union_41">
              <path
                 d="m 1262.96,256.387 v -2.407 c -0.46,-0.02 -0.89,-0.177 -1.25,-0.431 l -0.84,0.846 -0.43,-0.425 0.84,-0.833 c -0.31,-0.373 -0.5,-0.844 -0.52,-1.359 h -2.61 v -0.601 h 2.66 c 0.09,-0.406 0.29,-0.771 0.56,-1.065 l -0.93,-0.926 0.43,-0.426 0.96,0.966 c 0.33,-0.206 0.72,-0.333 1.13,-0.35 v -2.607 h 0.69 v 2.68 c 0.32,0.085 0.62,0.239 0.87,0.445 l 1.13,-1.134 0.43,0.425 -1.15,1.147 c 0.18,0.249 0.31,0.535 0.38,0.845 h 2.46 v 0.601 h -2.41 c -0.02,0.413 -0.14,0.797 -0.35,1.126 l 1.07,1.066 -0.43,0.425 -1.02,-1.027 c -0.28,0.254 -0.61,0.441 -0.98,0.539 v 2.48 z"
                 id="path934" />
            </g>
            <g
               id="Union_42">
              <path
                 d="m 1375.97,-29.7423 v -2.4065 c -0.46,-0.0198 -0.89,-0.1768 -1.25,-0.4313 l -0.84,0.8462 -0.43,-0.425 0.84,-0.8332 c -0.31,-0.3732 -0.5,-0.8441 -0.52,-1.3586 h -2.61 v -0.6011 h 2.66 c 0.09,-0.4056 0.29,-0.7709 0.56,-1.065 l -0.93,-0.9266 0.43,-0.425 0.96,0.966 c 0.33,-0.2068 0.72,-0.333 1.13,-0.3506 v -2.607 h 0.69 v 2.6802 c 0.32,0.0851 0.62,0.239 0.87,0.4451 l 1.13,-1.1338 0.43,0.425 -1.15,1.147 c 0.18,0.2489 0.31,0.5351 0.38,0.8447 h 2.46 v 0.6011 h -2.41 c -0.02,0.4126 -0.14,0.7971 -0.35,1.1257 l 1.07,1.0662 -0.43,0.4251 -1.02,-1.0268 c -0.28,0.2532 -0.61,0.441 -0.98,0.5385 v 2.4797 z"
                 id="path937" />
            </g>
            <g
               id="Union_43">
              <path
                 d="m 1305.04,574.976 v -2.407 c -0.47,-0.02 -0.89,-0.177 -1.25,-0.431 l -0.84,0.846 -0.43,-0.425 0.83,-0.833 c -0.3,-0.374 -0.49,-0.844 -0.51,-1.359 h -2.61 v -0.601 h 2.66 c 0.09,-0.406 0.28,-0.771 0.56,-1.065 l -0.93,-0.927 0.43,-0.425 0.96,0.966 c 0.33,-0.206 0.72,-0.333 1.13,-0.35 v -2.607 h 0.68 v 2.68 c 0.33,0.085 0.63,0.239 0.88,0.445 l 1.13,-1.134 0.43,0.425 -1.15,1.147 c 0.18,0.249 0.31,0.535 0.38,0.845 h 2.46 v 0.601 h -2.41 c -0.02,0.413 -0.14,0.797 -0.35,1.126 l 1.07,1.066 -0.43,0.425 -1.03,-1.027 c -0.27,0.253 -0.6,0.441 -0.98,0.539 v 2.48 z"
                 id="path940" />
            </g>
            <g
               id="Union_44">
              <path
                 d="m 1276.18,631.48 v -2.407 c -0.46,-0.019 -0.89,-0.176 -1.24,-0.431 l -0.85,0.846 -0.42,-0.425 0.83,-0.833 c -0.3,-0.373 -0.5,-0.844 -0.52,-1.359 h -2.6 v -0.601 h 2.66 c 0.08,-0.405 0.28,-0.771 0.55,-1.065 l -0.92,-0.926 0.42,-0.425 0.97,0.966 c 0.33,-0.207 0.71,-0.333 1.12,-0.351 v -2.607 h 0.69 v 2.68 c 0.33,0.086 0.62,0.239 0.87,0.446 l 1.14,-1.134 0.42,0.425 -1.14,1.147 c 0.17,0.249 0.31,0.535 0.37,0.844 h 2.46 v 0.601 h -2.4 c -0.02,0.413 -0.15,0.798 -0.35,1.126 l 1.06,1.066 -0.42,0.425 -1.03,-1.026 c -0.27,0.253 -0.61,0.441 -0.98,0.538 v 2.48 z"
                 id="path943" />
            </g>
            <g
               id="Union_45">
              <path
                 d="m 1063.39,626.671 v -2.406 c -0.46,-0.02 -0.89,-0.177 -1.24,-0.432 l -0.85,0.846 -0.43,-0.425 0.84,-0.833 c -0.31,-0.373 -0.5,-0.844 -0.52,-1.358 h -2.61 v -0.602 h 2.66 c 0.09,-0.405 0.29,-0.77 0.56,-1.065 l -0.93,-0.926 0.43,-0.425 0.97,0.966 c 0.32,-0.207 0.71,-0.333 1.12,-0.351 v -2.607 h 0.69 v 2.681 c 0.32,0.085 0.62,0.239 0.87,0.445 l 1.13,-1.134 0.43,0.425 -1.15,1.147 c 0.18,0.249 0.31,0.535 0.38,0.844 h 2.46 v 0.602 h -2.41 c -0.01,0.412 -0.14,0.797 -0.35,1.125 l 1.07,1.067 -0.43,0.425 -1.02,-1.027 c -0.28,0.253 -0.61,0.441 -0.98,0.538 v 2.48 z"
                 id="path946" />
            </g>
            <g
               id="Union_46">
              <path
                 d="m 580.098,617.053 v -2.406 c -0.464,-0.02 -0.892,-0.177 -1.246,-0.432 l -0.846,0.847 -0.425,-0.425 0.833,-0.834 c -0.305,-0.373 -0.496,-0.844 -0.518,-1.358 h -2.607 v -0.601 h 2.659 c 0.09,-0.406 0.287,-0.771 0.56,-1.065 l -0.927,-0.927 0.425,-0.425 0.966,0.966 c 0.329,-0.207 0.713,-0.333 1.126,-0.351 v -2.607 h 0.687 v 2.681 c 0.324,0.085 0.62,0.239 0.872,0.445 l 1.134,-1.134 0.425,0.425 -1.147,1.147 c 0.179,0.249 0.31,0.535 0.379,0.845 h 2.459 v 0.601 H 582.5 c -0.018,0.412 -0.144,0.797 -0.351,1.125 l 1.067,1.067 -0.425,0.425 -1.027,-1.027 c -0.273,0.253 -0.608,0.441 -0.979,0.538 v 2.48 z"
                 id="path949" />
            </g>
            <g
               id="Union_47">
              <path
                 d="m 605.344,555.74 v -2.407 c -0.463,-0.019 -0.892,-0.176 -1.245,-0.431 l -0.846,0.846 -0.425,-0.425 0.833,-0.833 c -0.306,-0.373 -0.496,-0.844 -0.519,-1.359 h -2.606 v -0.601 h 2.659 c 0.09,-0.405 0.287,-0.771 0.559,-1.065 l -0.926,-0.926 0.425,-0.425 0.966,0.966 c 0.328,-0.207 0.713,-0.333 1.125,-0.351 v -2.607 h 0.687 v 2.68 c 0.324,0.085 0.621,0.239 0.872,0.446 l 1.134,-1.134 0.425,0.425 -1.147,1.147 c 0.18,0.249 0.311,0.535 0.379,0.844 h 2.459 v 0.601 h -2.406 c -0.018,0.413 -0.144,0.798 -0.351,1.126 l 1.066,1.066 -0.425,0.425 -1.026,-1.026 c -0.274,0.253 -0.608,0.441 -0.98,0.538 v 2.48 z"
                 id="path952" />
            </g>
            <g
               id="Union_48">
              <path
                 d="m 584.907,555.74 v -2.407 c -0.464,-0.019 -0.892,-0.176 -1.246,-0.431 l -0.846,0.846 -0.425,-0.425 0.833,-0.833 c -0.305,-0.373 -0.496,-0.844 -0.518,-1.359 h -2.607 v -0.601 h 2.659 c 0.09,-0.405 0.287,-0.771 0.559,-1.065 l -0.926,-0.926 0.425,-0.425 0.966,0.966 c 0.329,-0.207 0.713,-0.333 1.126,-0.351 v -2.607 h 0.687 v 2.68 c 0.324,0.085 0.62,0.239 0.872,0.446 l 1.134,-1.134 0.425,0.425 -1.147,1.147 c 0.179,0.249 0.31,0.535 0.378,0.844 h 2.46 v 0.601 h -2.407 c -0.018,0.413 -0.144,0.798 -0.351,1.126 l 1.067,1.066 -0.425,0.425 -1.027,-1.026 c -0.273,0.253 -0.608,0.441 -0.979,0.538 v 2.48 z"
                 id="path955" />
            </g>
            <g
               id="Union_49">
              <path
                 d="m 337.249,406.664 v -2.406 c -0.464,-0.02 -0.892,-0.177 -1.246,-0.432 l -0.846,0.847 -0.425,-0.425 0.833,-0.833 c -0.305,-0.374 -0.496,-0.845 -0.518,-1.359 h -2.607 v -0.601 h 2.659 c 0.09,-0.406 0.287,-0.771 0.56,-1.065 l -0.927,-0.927 0.425,-0.425 0.966,0.966 c 0.329,-0.207 0.713,-0.333 1.126,-0.35 v -2.607 h 0.687 v 2.68 c 0.324,0.085 0.62,0.239 0.872,0.445 l 1.134,-1.134 0.425,0.425 -1.147,1.147 c 0.179,0.249 0.31,0.535 0.379,0.845 h 2.459 v 0.601 h -2.407 c -0.018,0.413 -0.144,0.797 -0.35,1.126 l 1.066,1.066 -0.425,0.425 -1.027,-1.027 c -0.273,0.253 -0.608,0.441 -0.979,0.539 v 2.479 z"
                 id="path958" />
            </g>
            <g
               id="Union_50">
              <path
                 d="m 337.249,334.531 v -2.406 c -0.464,-0.02 -0.892,-0.177 -1.246,-0.432 l -0.846,0.846 -0.425,-0.425 0.833,-0.833 c -0.305,-0.373 -0.496,-0.844 -0.518,-1.358 h -2.607 v -0.602 h 2.659 c 0.09,-0.405 0.287,-0.77 0.56,-1.065 l -0.927,-0.926 0.425,-0.425 0.966,0.966 c 0.329,-0.207 0.713,-0.333 1.126,-0.351 v -2.607 h 0.687 v 2.681 c 0.324,0.085 0.62,0.239 0.872,0.445 l 1.134,-1.134 0.425,0.425 -1.147,1.147 c 0.179,0.249 0.31,0.535 0.379,0.844 h 2.459 v 0.602 h -2.407 c -0.018,0.412 -0.144,0.797 -0.35,1.125 l 1.066,1.067 -0.425,0.425 -1.027,-1.027 c -0.273,0.253 -0.608,0.441 -0.979,0.538 v 2.48 z"
                 id="path961" />
            </g>
            <g
               id="Union_51">
              <path
                 d="m 387.742,334.531 v -2.406 c -0.464,-0.02 -0.892,-0.177 -1.245,-0.432 l -0.846,0.846 -0.426,-0.425 0.834,-0.833 c -0.306,-0.373 -0.497,-0.844 -0.519,-1.358 h -2.607 v -0.602 h 2.66 c 0.09,-0.405 0.286,-0.77 0.559,-1.065 l -0.927,-0.926 0.426,-0.425 0.966,0.966 c 0.328,-0.207 0.713,-0.333 1.125,-0.351 v -2.607 h 0.687 v 2.681 c 0.324,0.085 0.62,0.239 0.872,0.445 l 1.134,-1.134 0.425,0.425 -1.147,1.147 c 0.18,0.249 0.31,0.535 0.379,0.844 h 2.459 v 0.602 h -2.406 c -0.018,0.412 -0.144,0.797 -0.351,1.125 l 1.066,1.067 -0.425,0.425 -1.027,-1.027 c -0.273,0.253 -0.608,0.441 -0.979,0.538 v 2.48 z"
                 id="path964" />
            </g>
            <g
               id="Union_52">
              <path
                 d="m 387.742,380.215 v -2.406 c -0.464,-0.02 -0.892,-0.177 -1.245,-0.431 l -0.846,0.846 -0.426,-0.425 0.834,-0.833 c -0.306,-0.374 -0.497,-0.844 -0.519,-1.359 h -2.607 v -0.601 h 2.66 c 0.09,-0.406 0.286,-0.771 0.559,-1.065 l -0.927,-0.927 0.426,-0.425 0.966,0.966 c 0.328,-0.206 0.713,-0.333 1.125,-0.35 v -2.607 h 0.687 v 2.68 c 0.324,0.085 0.62,0.239 0.872,0.445 l 1.134,-1.134 0.425,0.425 -1.147,1.147 c 0.18,0.249 0.31,0.535 0.379,0.845 h 2.459 v 0.601 h -2.406 c -0.018,0.413 -0.144,0.797 -0.351,1.126 l 1.066,1.066 -0.425,0.425 -1.027,-1.027 c -0.273,0.253 -0.608,0.441 -0.979,0.539 v 2.479 z"
                 id="path967" />
            </g>
            <g
               id="Union_53">
              <path
                 d="m 182.162,315.295 v -2.406 c -0.464,-0.02 -0.892,-0.177 -1.245,-0.431 l -0.847,0.846 -0.425,-0.425 0.834,-0.833 c -0.306,-0.374 -0.497,-0.844 -0.519,-1.359 h -2.607 v -0.601 h 2.66 c 0.09,-0.406 0.286,-0.771 0.559,-1.065 l -0.927,-0.927 0.425,-0.425 0.967,0.966 c 0.328,-0.206 0.713,-0.333 1.125,-0.35 v -2.607 h 0.687 v 2.68 c 0.324,0.085 0.62,0.239 0.872,0.445 l 1.134,-1.134 0.425,0.425 -1.147,1.147 c 0.179,0.249 0.31,0.535 0.379,0.845 h 2.459 v 0.601 h -2.407 c -0.017,0.413 -0.143,0.797 -0.35,1.126 l 1.066,1.066 -0.425,0.425 -1.027,-1.027 c -0.273,0.253 -0.608,0.441 -0.979,0.539 v 2.479 z"
                 id="path970" />
            </g>
            <g
               id="Union_54">
              <path
                 d="m 368.507,130.153 v -2.406 c -0.464,-0.02 -0.892,-0.177 -1.246,-0.432 l -0.846,0.847 -0.425,-0.425 0.833,-0.834 c -0.306,-0.373 -0.496,-0.844 -0.518,-1.358 h -2.607 v -0.601 h 2.659 c 0.09,-0.406 0.287,-0.771 0.559,-1.065 l -0.926,-0.927 0.425,-0.425 0.966,0.966 c 0.329,-0.207 0.713,-0.333 1.126,-0.35 v -2.608 h 0.687 v 2.681 c 0.324,0.085 0.62,0.239 0.872,0.445 l 1.133,-1.134 0.426,0.425 -1.147,1.147 c 0.179,0.249 0.31,0.535 0.378,0.845 h 2.46 v 0.601 h -2.407 c -0.018,0.412 -0.144,0.797 -0.351,1.126 l 1.067,1.066 -0.426,0.425 -1.026,-1.027 c -0.273,0.253 -0.608,0.441 -0.979,0.538 v 2.48 z"
                 id="path973" />
            </g>
            <g
               id="Union_55">
              <path
                 d="m 186.971,455.955 v -2.406 c -0.464,-0.02 -0.892,-0.177 -1.245,-0.431 l -0.847,0.846 -0.425,-0.425 0.834,-0.833 c -0.306,-0.374 -0.497,-0.844 -0.519,-1.359 h -2.607 v -0.601 h 2.66 c 0.09,-0.406 0.286,-0.771 0.559,-1.065 l -0.927,-0.927 0.425,-0.425 0.966,0.966 c 0.329,-0.206 0.714,-0.333 1.126,-0.35 v -2.607 h 0.687 v 2.68 c 0.324,0.085 0.62,0.239 0.872,0.445 l 1.134,-1.134 0.425,0.425 -1.147,1.147 c 0.179,0.249 0.31,0.535 0.379,0.845 h 2.459 v 0.601 h -2.407 c -0.017,0.413 -0.143,0.797 -0.35,1.126 l 1.066,1.066 -0.425,0.425 -1.027,-1.027 c -0.273,0.253 -0.608,0.441 -0.979,0.539 v 2.479 z"
                 id="path976" />
            </g>
            <g
               id="Union_56">
              <path
                 d="m 243.476,506.449 v -2.407 c -0.464,-0.02 -0.893,-0.176 -1.246,-0.431 l -0.846,0.846 -0.425,-0.425 0.833,-0.833 c -0.306,-0.373 -0.496,-0.844 -0.518,-1.359 h -2.607 v -0.601 h 2.659 c 0.09,-0.405 0.287,-0.771 0.559,-1.065 l -0.926,-0.926 0.425,-0.425 0.966,0.966 c 0.328,-0.207 0.713,-0.333 1.126,-0.351 v -2.607 h 0.687 v 2.68 c 0.324,0.085 0.62,0.239 0.872,0.445 l 1.133,-1.133 0.425,0.425 -1.147,1.147 c 0.18,0.249 0.311,0.535 0.379,0.844 h 2.459 v 0.601 h -2.406 c -0.018,0.413 -0.144,0.797 -0.351,1.126 l 1.066,1.066 -0.425,0.425 -1.026,-1.026 c -0.274,0.253 -0.608,0.441 -0.979,0.538 v 2.48 z"
                 id="path979" />
            </g>
            <g
               id="Union_57">
              <path
                 d="m 201.398,523.28 v -2.407 c -0.464,-0.019 -0.892,-0.176 -1.246,-0.431 l -0.846,0.846 -0.425,-0.425 0.833,-0.833 c -0.305,-0.373 -0.496,-0.844 -0.518,-1.359 h -2.607 v -0.601 h 2.659 c 0.09,-0.405 0.287,-0.771 0.559,-1.065 l -0.926,-0.926 0.425,-0.425 0.966,0.966 c 0.329,-0.207 0.713,-0.333 1.126,-0.351 v -2.607 h 0.687 v 2.68 c 0.324,0.086 0.62,0.239 0.872,0.446 l 1.134,-1.134 0.425,0.425 -1.147,1.147 c 0.179,0.249 0.31,0.535 0.379,0.844 h 2.459 v 0.601 H 203.8 c -0.018,0.413 -0.144,0.798 -0.351,1.126 l 1.067,1.066 -0.425,0.425 -1.027,-1.026 c -0.273,0.253 -0.608,0.441 -0.979,0.538 v 2.48 z"
                 id="path982" />
            </g>
            <g
               id="Union_58">
              <path
                 d="m 124.456,508.853 v -2.406 c -0.464,-0.02 -0.893,-0.177 -1.246,-0.432 l -0.846,0.847 -0.425,-0.425 0.833,-0.834 c -0.306,-0.373 -0.496,-0.844 -0.518,-1.358 h -2.607 v -0.601 h 2.659 c 0.09,-0.406 0.287,-0.771 0.559,-1.065 l -0.926,-0.927 0.425,-0.425 0.966,0.966 c 0.328,-0.207 0.713,-0.333 1.126,-0.351 v -2.607 h 0.687 v 2.681 c 0.324,0.085 0.62,0.239 0.872,0.445 l 1.133,-1.134 0.425,0.425 -1.147,1.147 c 0.18,0.249 0.311,0.535 0.379,0.845 h 2.459 v 0.601 h -2.406 c -0.018,0.412 -0.144,0.797 -0.351,1.125 l 1.066,1.067 -0.425,0.425 -1.026,-1.027 c -0.274,0.253 -0.608,0.441 -0.979,0.538 v 2.48 z"
                 id="path985" />
            </g>
            <g
               id="Union_59">
              <path
                 d="m 99.2089,59.2221 v -2.4065 c -0.4638,-0.0198 -0.8922,-0.1768 -1.2455,-0.4313 l -0.8462,0.8463 -0.4251,-0.4251 0.8332,-0.8332 c -0.3056,-0.3732 -0.4964,-0.844 -0.5184,-1.3586 H 94.4 v -0.6011 h 2.6594 c 0.0899,-0.4056 0.2867,-0.7709 0.5592,-1.065 l -0.9265,-0.9265 0.4251,-0.4251 0.966,0.966 c 0.3286,-0.2068 0.7131,-0.333 1.1257,-0.3506 v -2.607 h 0.687 v 2.6802 c 0.3241,0.0851 0.6201,0.239 0.8721,0.4451 l 1.134,-1.1338 0.425,0.425 -1.147,1.147 c 0.179,0.2489 0.31,0.5351 0.379,0.8447 h 2.459 v 0.6011 h -2.407 c -0.017,0.4126 -0.144,0.7971 -0.35,1.1257 l 1.066,1.0662 -0.425,0.4251 -1.027,-1.0268 c -0.273,0.2532 -0.608,0.441 -0.9791,0.5385 v 2.4797 z"
                 id="path988" />
            </g>
            <g
               id="Union_60">
              <path
                 d="m 191.78,59.2221 v -2.4065 c -0.464,-0.0198 -0.892,-0.1768 -1.245,-0.4313 l -0.847,0.8463 -0.425,-0.4251 0.833,-0.8332 c -0.305,-0.3732 -0.496,-0.844 -0.518,-1.3586 h -2.607 v -0.6011 h 2.659 c 0.09,-0.4056 0.287,-0.7709 0.56,-1.065 l -0.927,-0.9265 0.425,-0.4251 0.966,0.966 c 0.329,-0.2068 0.713,-0.333 1.126,-0.3506 v -2.607 h 0.687 v 2.6802 c 0.324,0.0851 0.62,0.239 0.872,0.4451 l 1.134,-1.1338 0.425,0.425 -1.147,1.147 c 0.179,0.2489 0.31,0.5351 0.379,0.8447 h 2.459 v 0.6011 h -2.407 c -0.017,0.4126 -0.144,0.7971 -0.35,1.1257 l 1.066,1.0662 -0.425,0.4251 -1.027,-1.0268 c -0.273,0.2532 -0.608,0.441 -0.979,0.5385 v 2.4797 z"
                 id="path991" />
            </g>
            <g
               id="Union_61">
              <path
                 d="m 253.093,-0.88894 v -2.40652 c -0.464,-0.01983 -0.892,-0.17678 -1.245,-0.43136 l -0.846,0.8463 -0.425,-0.42505 0.833,-0.83319 c -0.306,-0.37321 -0.497,-0.84407 -0.519,-1.35863 h -2.607 v -0.60112 h 2.66 c 0.09,-0.40555 0.286,-0.77091 0.559,-1.06501 l -0.926,-0.92651 0.425,-0.42505 0.966,0.96602 c 0.328,-0.20685 0.713,-0.333 1.125,-0.35064 v -2.607 h 0.687 v 2.68026 c 0.324,0.08509 0.621,0.23898 0.872,0.4451 l 1.134,-1.13386 0.425,0.42505 -1.147,1.14697 c 0.18,0.24892 0.31,0.53509 0.379,0.84468 h 2.459 v 0.60111 h -2.406 c -0.018,0.41259 -0.144,0.79708 -0.351,1.12566 l 1.066,1.06628 -0.425,0.42505 -1.027,-1.02677 c -0.273,0.25319 -0.607,0.44097 -0.979,0.53845 v 2.47978 z"
                 id="path994" />
            </g>
            <g
               id="Union_62">
              <path
                 d="m 233.858,250.375 v -2.406 c -0.464,-0.02 -0.892,-0.177 -1.246,-0.431 l -0.846,0.846 -0.425,-0.425 0.833,-0.833 c -0.305,-0.374 -0.496,-0.844 -0.518,-1.359 h -2.607 v -0.601 h 2.659 c 0.09,-0.406 0.287,-0.771 0.56,-1.065 l -0.927,-0.927 0.425,-0.425 0.966,0.966 c 0.329,-0.206 0.713,-0.333 1.126,-0.35 v -2.607 h 0.687 v 2.68 c 0.324,0.085 0.62,0.239 0.872,0.445 l 1.134,-1.134 0.425,0.425 -1.147,1.147 c 0.179,0.249 0.31,0.535 0.379,0.845 h 2.459 v 0.601 h -2.407 c -0.018,0.413 -0.144,0.797 -0.351,1.126 l 1.067,1.066 -0.425,0.425 -1.027,-1.027 c -0.273,0.253 -0.608,0.441 -0.979,0.539 v 2.479 z"
                 id="path997" />
            </g>
            <g
               id="Union_63">
              <path
                 d="m 475.504,-30.9445 v -2.4065 c -0.463,-0.0198 -0.892,-0.1768 -1.245,-0.4314 l -0.846,0.8463 -0.425,-0.425 0.833,-0.8332 c -0.306,-0.3732 -0.496,-0.8441 -0.519,-1.3586 h -2.606 v -0.6011 h 2.659 c 0.09,-0.4056 0.287,-0.7709 0.559,-1.065 l -0.926,-0.9266 0.425,-0.425 0.966,0.966 c 0.328,-0.2068 0.713,-0.333 1.125,-0.3506 v -2.6071 h 0.687 v 2.6803 c 0.324,0.0851 0.621,0.239 0.872,0.4451 l 1.134,-1.1338 0.425,0.425 -1.147,1.147 c 0.18,0.2489 0.311,0.5351 0.379,0.8447 h 2.459 v 0.6011 h -2.406 c -0.018,0.4126 -0.144,0.7971 -0.351,1.1257 l 1.066,1.0662 -0.425,0.4251 -1.026,-1.0268 c -0.274,0.2532 -0.608,0.441 -0.98,0.5385 v 2.4797 z"
                 id="path1000" />
            </g>
            <g
               id="Union_64">
              <path
                 d="m 1240.12,199.882 v -2.406 c -0.47,-0.02 -0.89,-0.177 -1.25,-0.432 l -0.84,0.847 -0.43,-0.425 0.83,-0.834 c -0.3,-0.373 -0.49,-0.844 -0.51,-1.358 h -2.61 v -0.601 h 2.66 c 0.09,-0.406 0.28,-0.771 0.56,-1.065 l -0.93,-0.927 0.43,-0.425 0.96,0.966 c 0.33,-0.207 0.72,-0.333 1.13,-0.351 v -2.607 h 0.68 v 2.681 c 0.33,0.085 0.62,0.239 0.88,0.445 l 1.13,-1.134 0.43,0.425 -1.15,1.147 c 0.18,0.249 0.31,0.535 0.38,0.845 h 2.46 v 0.601 h -2.41 c -0.02,0.412 -0.14,0.797 -0.35,1.125 l 1.07,1.067 -0.43,0.425 -1.03,-1.027 c -0.27,0.253 -0.6,0.441 -0.98,0.538 v 2.48 z"
                 id="path1003" />
            </g>
            <g
               id="Union_65">
              <path
                 d="m 1525.04,189.062 v -2.406 c -0.46,-0.02 -0.89,-0.177 -1.24,-0.432 l -0.85,0.847 -0.42,-0.425 0.83,-0.834 c -0.3,-0.373 -0.5,-0.844 -0.52,-1.358 h -2.6 v -0.601 h 2.66 c 0.08,-0.406 0.28,-0.771 0.55,-1.065 l -0.92,-0.927 0.42,-0.425 0.97,0.966 c 0.33,-0.207 0.71,-0.333 1.12,-0.351 v -2.607 h 0.69 v 2.681 c 0.33,0.085 0.62,0.239 0.87,0.445 l 1.14,-1.134 0.42,0.425 -1.14,1.147 c 0.17,0.249 0.31,0.535 0.37,0.845 h 2.46 v 0.601 h -2.4 c -0.02,0.412 -0.15,0.797 -0.35,1.125 l 1.06,1.067 -0.42,0.425 -1.03,-1.027 c -0.27,0.253 -0.61,0.441 -0.98,0.538 v 2.48 z"
                 id="path1006" />
            </g>
            <g
               id="Union_66">
              <path
                 d="m 1534.66,64.031 v -2.4065 c -0.46,-0.0198 -0.89,-0.1768 -1.24,-0.4313 l -0.85,0.8463 -0.42,-0.4251 0.83,-0.8332 c -0.31,-0.3732 -0.5,-0.844 -0.52,-1.3586 h -2.61 v -0.6011 h 2.66 c 0.09,-0.4056 0.29,-0.7709 0.56,-1.065 l -0.92,-0.9265 0.42,-0.4251 0.97,0.966 c 0.33,-0.2068 0.71,-0.333 1.12,-0.3506 v -2.607 h 0.69 v 2.6802 c 0.32,0.0851 0.62,0.239 0.87,0.4451 l 1.14,-1.1338 0.42,0.425 -1.15,1.147 c 0.18,0.2489 0.31,0.5351 0.38,0.8447 h 2.46 v 0.6011 h -2.41 c -0.01,0.4126 -0.14,0.7971 -0.35,1.1257 l 1.07,1.0662 -0.42,0.4251 -1.03,-1.0268 c -0.27,0.2532 -0.61,0.441 -0.98,0.5385 v 2.4797 z"
                 id="path1009" />
            </g>
            <g
               id="Union_67">
              <path
                 d="M 1445.7,23.1555 V 20.749 c -0.47,-0.0199 -0.89,-0.1768 -1.25,-0.4314 l -0.84,0.8463 -0.43,-0.425 0.83,-0.8332 c -0.3,-0.3732 -0.49,-0.8441 -0.51,-1.3587 h -2.61 v -0.6011 h 2.66 c 0.09,-0.4055 0.28,-0.7709 0.56,-1.065 l -0.93,-0.9265 0.43,-0.425 0.96,0.966 c 0.33,-0.2069 0.72,-0.333 1.13,-0.3507 v -2.607 h 0.68 v 2.6803 c 0.33,0.0851 0.63,0.239 0.88,0.4451 l 1.13,-1.1339 0.43,0.4251 -1.15,1.147 c 0.18,0.2489 0.31,0.535 0.38,0.8446 h 2.46 v 0.6011 h -2.41 c -0.02,0.4126 -0.14,0.7971 -0.35,1.1257 l 1.07,1.0663 -0.43,0.425 -1.03,-1.0267 c -0.27,0.2532 -0.6,0.4409 -0.98,0.5384 v 2.4798 z"
                 id="path1012" />
            </g>
            <g
               id="Union_68">
              <path
                 d="m 1556.3,13.5377 v -2.4065 c -0.46,-0.0199 -0.89,-0.1768 -1.24,-0.4314 l -0.85,0.8463 -0.42,-0.425 0.83,-0.8332 c -0.31,-0.37324 -0.5,-0.84409 -0.52,-1.35866 h -2.61 V 8.32813 h 2.66 c 0.09,-0.40555 0.29,-0.7709 0.56,-1.065 l -0.92,-0.92653 0.42,-0.42505 0.97,0.96604 c 0.33,-0.20685 0.71,-0.33301 1.12,-0.35065 V 3.91992 h 0.69 v 2.68027 c 0.32,0.08508 0.62,0.23897 0.87,0.44511 l 1.14,-1.13387 0.42,0.42505 -1.15,1.14697 c 0.18,0.24893 0.31,0.53509 0.38,0.84468 h 2.46 v 0.60111 h -2.41 c -0.01,0.41261 -0.14,0.7971 -0.35,1.12566 l 1.07,1.0663 -0.42,0.425 -1.03,-1.0267 c -0.27,0.2532 -0.61,0.4409 -0.98,0.5384 v 2.4798 z"
                 id="path1015" />
            </g>
            <g
               id="Union_69">
              <path
                 d="m 1515.43,-42.9668 v -2.4065 c -0.47,-0.0198 -0.9,-0.1768 -1.25,-0.4313 l -0.85,0.8463 -0.42,-0.4251 0.83,-0.8332 c -0.3,-0.3732 -0.49,-0.844 -0.52,-1.3586 h -2.6 v -0.6011 h 2.66 c 0.09,-0.4056 0.28,-0.7709 0.56,-1.065 l -0.93,-0.9266 0.42,-0.425 0.97,0.966 c 0.33,-0.2068 0.71,-0.333 1.13,-0.3506 v -2.607 h 0.68 v 2.6802 c 0.33,0.0851 0.62,0.239 0.88,0.4451 l 1.13,-1.1338 0.42,0.425 -1.14,1.147 c 0.18,0.2489 0.31,0.5351 0.38,0.8447 h 2.46 v 0.6011 h -2.41 c -0.02,0.4126 -0.14,0.7971 -0.35,1.1257 l 1.06,1.0662 -0.42,0.4251 -1.03,-1.0268 c -0.27,0.2532 -0.61,0.441 -0.98,0.5385 v 2.4797 z"
                 id="path1018" />
            </g>
            <g
               id="Union_70">
              <path
                 d="m 1770.3,293.655 v -2.406 c -0.47,-0.02 -0.89,-0.177 -1.25,-0.431 l -0.84,0.846 -0.43,-0.425 0.83,-0.833 c -0.3,-0.374 -0.49,-0.844 -0.51,-1.359 h -2.61 v -0.601 h 2.66 c 0.09,-0.406 0.28,-0.771 0.56,-1.065 l -0.93,-0.927 0.43,-0.425 0.96,0.966 c 0.33,-0.206 0.72,-0.333 1.13,-0.35 v -2.607 h 0.68 v 2.68 c 0.33,0.085 0.62,0.239 0.88,0.445 l 1.13,-1.134 0.43,0.425 -1.15,1.147 c 0.18,0.249 0.31,0.535 0.38,0.845 h 2.46 v 0.601 h -2.41 c -0.02,0.413 -0.14,0.797 -0.35,1.126 l 1.07,1.066 -0.43,0.425 -1.03,-1.027 c -0.27,0.253 -0.6,0.441 -0.98,0.539 v 2.479 z"
                 id="path1021" />
            </g>
            <g
               id="Union_71">
              <path
                 d="m 1739.04,245.567 v -2.407 c -0.46,-0.02 -0.89,-0.177 -1.25,-0.431 l -0.84,0.846 -0.43,-0.425 0.84,-0.833 c -0.31,-0.373 -0.5,-0.844 -0.52,-1.359 h -2.61 v -0.601 h 2.66 c 0.09,-0.406 0.29,-0.771 0.56,-1.065 l -0.93,-0.926 0.43,-0.426 0.96,0.966 c 0.33,-0.206 0.72,-0.333 1.13,-0.35 v -2.607 h 0.69 v 2.68 c 0.32,0.085 0.62,0.239 0.87,0.445 l 1.13,-1.134 0.43,0.425 -1.15,1.147 c 0.18,0.249 0.31,0.535 0.38,0.845 h 2.46 v 0.601 h -2.41 c -0.02,0.413 -0.14,0.797 -0.35,1.126 l 1.07,1.066 -0.43,0.425 -1.02,-1.027 c -0.28,0.254 -0.61,0.441 -0.98,0.539 v 2.48 z"
                 id="path1024" />
            </g>
            <g
               id="Union_72">
              <path
                 d="m 1597.18,476.393 v -2.406 c -0.47,-0.02 -0.89,-0.177 -1.25,-0.432 l -0.84,0.847 -0.43,-0.425 0.83,-0.834 c -0.3,-0.373 -0.49,-0.844 -0.51,-1.358 h -2.61 v -0.601 h 2.66 c 0.09,-0.406 0.28,-0.771 0.56,-1.065 l -0.93,-0.927 0.43,-0.425 0.96,0.966 c 0.33,-0.207 0.72,-0.333 1.13,-0.35 v -2.607 h 0.68 v 2.68 c 0.33,0.085 0.62,0.239 0.88,0.445 l 1.13,-1.134 0.43,0.425 -1.15,1.147 c 0.18,0.249 0.31,0.535 0.38,0.845 h 2.46 v 0.601 h -2.41 c -0.02,0.412 -0.14,0.797 -0.35,1.125 l 1.07,1.067 -0.43,0.425 -1.03,-1.027 c -0.27,0.253 -0.6,0.441 -0.98,0.539 v 2.479 z"
                 id="path1027" />
            </g>
            <g
               id="Union_73">
              <path
                 d="m 1677.73,401.856 v -2.407 c -0.47,-0.02 -0.9,-0.177 -1.25,-0.431 l -0.85,0.846 -0.42,-0.425 0.83,-0.833 c -0.3,-0.374 -0.49,-0.844 -0.52,-1.359 h -2.6 v -0.601 h 2.66 c 0.09,-0.406 0.28,-0.771 0.56,-1.065 l -0.93,-0.927 0.42,-0.425 0.97,0.966 c 0.33,-0.206 0.71,-0.333 1.13,-0.35 v -2.607 h 0.68 v 2.68 c 0.33,0.085 0.62,0.239 0.88,0.445 l 1.13,-1.134 0.42,0.425 -1.14,1.147 c 0.18,0.249 0.31,0.535 0.38,0.845 h 2.46 v 0.601 h -2.41 c -0.02,0.413 -0.14,0.797 -0.35,1.126 l 1.06,1.066 -0.42,0.425 -1.03,-1.027 c -0.27,0.253 -0.61,0.441 -0.98,0.539 v 2.48 z"
                 id="path1030" />
            </g>
            <g
               id="Union_74">
              <path
                 d="m 1694.56,411.473 v -2.406 c -0.47,-0.02 -0.89,-0.177 -1.25,-0.432 l -0.84,0.847 -0.43,-0.425 0.83,-0.834 c -0.3,-0.373 -0.49,-0.844 -0.51,-1.358 h -2.61 v -0.601 h 2.66 c 0.09,-0.406 0.28,-0.771 0.56,-1.065 l -0.93,-0.927 0.43,-0.425 0.96,0.966 c 0.33,-0.207 0.72,-0.333 1.13,-0.35 v -2.608 h 0.68 v 2.681 c 0.33,0.085 0.63,0.239 0.88,0.445 l 1.13,-1.134 0.43,0.425 -1.15,1.147 c 0.18,0.249 0.31,0.535 0.38,0.845 h 2.46 v 0.601 h -2.41 c -0.02,0.412 -0.14,0.797 -0.35,1.125 l 1.07,1.067 -0.43,0.425 -1.03,-1.027 c -0.27,0.253 -0.6,0.441 -0.98,0.538 v 2.48 z"
                 id="path1033" />
            </g>
            <g
               id="Union_75">
              <path
                 d="m 1677.73,460.764 v -2.406 c -0.47,-0.02 -0.9,-0.177 -1.25,-0.431 l -0.85,0.846 -0.42,-0.425 0.83,-0.833 c -0.3,-0.374 -0.49,-0.845 -0.52,-1.359 h -2.6 v -0.601 h 2.66 c 0.09,-0.406 0.28,-0.771 0.56,-1.065 l -0.93,-0.927 0.42,-0.425 0.97,0.966 c 0.33,-0.207 0.71,-0.333 1.13,-0.35 v -2.607 h 0.68 v 2.68 c 0.33,0.085 0.62,0.239 0.88,0.445 l 1.13,-1.134 0.42,0.425 -1.14,1.147 c 0.18,0.249 0.31,0.535 0.38,0.845 h 2.46 v 0.601 h -2.41 c -0.02,0.413 -0.14,0.797 -0.35,1.126 l 1.06,1.066 -0.42,0.425 -1.03,-1.027 c -0.27,0.253 -0.61,0.441 -0.98,0.539 v 2.479 z"
                 id="path1036" />
            </g>
            <g
               id="Union_76">
              <path
                 d="M 1760.68,429.507 V 427.1 c -0.46,-0.02 -0.89,-0.177 -1.25,-0.431 l -0.84,0.846 -0.43,-0.425 0.84,-0.833 c -0.31,-0.373 -0.5,-0.844 -0.52,-1.359 h -2.61 v -0.601 h 2.66 c 0.09,-0.406 0.29,-0.771 0.56,-1.065 l -0.93,-0.926 0.43,-0.426 0.96,0.966 c 0.33,-0.206 0.72,-0.333 1.13,-0.35 v -2.607 h 0.69 v 2.68 c 0.32,0.085 0.62,0.239 0.87,0.445 l 1.13,-1.134 0.43,0.425 -1.15,1.147 c 0.18,0.249 0.31,0.535 0.38,0.845 h 2.46 v 0.601 h -2.41 c -0.02,0.413 -0.14,0.797 -0.35,1.126 l 1.07,1.066 -0.43,0.425 -1.02,-1.027 c -0.28,0.254 -0.61,0.441 -0.98,0.539 v 2.48 z"
                 id="path1039" />
            </g>
            <g
               id="Union_77">
              <path
                 d="m 1743.85,356.171 v -2.406 c -0.46,-0.02 -0.89,-0.177 -1.25,-0.432 l -0.84,0.846 -0.43,-0.425 0.84,-0.833 c -0.31,-0.373 -0.5,-0.844 -0.52,-1.358 h -2.61 v -0.602 h 2.66 c 0.09,-0.405 0.29,-0.77 0.56,-1.065 l -0.93,-0.926 0.43,-0.425 0.96,0.966 c 0.33,-0.207 0.72,-0.333 1.13,-0.351 v -2.607 h 0.69 v 2.681 c 0.32,0.085 0.62,0.239 0.87,0.445 l 1.13,-1.134 0.43,0.425 -1.15,1.147 c 0.18,0.249 0.31,0.535 0.38,0.844 h 2.46 v 0.602 h -2.41 c -0.02,0.412 -0.14,0.797 -0.35,1.125 l 1.07,1.067 -0.43,0.425 -1.02,-1.027 c -0.28,0.253 -0.61,0.441 -0.98,0.538 v 2.48 z"
                 id="path1042" />
            </g>
            <g
               id="Union_78">
              <path
                 d="m 1576.74,366.991 v -2.406 c -0.46,-0.02 -0.89,-0.177 -1.25,-0.432 l -0.84,0.846 -0.43,-0.425 0.84,-0.833 c -0.31,-0.373 -0.5,-0.844 -0.52,-1.358 h -2.61 v -0.602 h 2.66 c 0.09,-0.405 0.29,-0.77 0.56,-1.065 l -0.93,-0.926 0.43,-0.425 0.96,0.966 c 0.33,-0.207 0.72,-0.333 1.13,-0.351 v -2.607 h 0.69 v 2.681 c 0.32,0.085 0.62,0.238 0.87,0.445 l 1.13,-1.134 0.43,0.425 -1.15,1.147 c 0.18,0.249 0.31,0.535 0.38,0.844 h 2.46 v 0.602 h -2.41 c -0.02,0.412 -0.14,0.797 -0.35,1.125 l 1.07,1.067 -0.43,0.425 -1.02,-1.027 c -0.28,0.253 -0.61,0.441 -0.98,0.538 v 2.48 z"
                 id="path1045" />
            </g>
            <g
               id="Union_79">
              <path
                 d="m 1796.75,54.4133 v -2.4065 c -0.47,-0.0199 -0.9,-0.1768 -1.25,-0.4314 l -0.85,0.8463 -0.42,-0.4251 0.83,-0.8331 c -0.3,-0.3733 -0.49,-0.8441 -0.52,-1.3587 h -2.6 v -0.6011 h 2.66 c 0.09,-0.4055 0.28,-0.7709 0.56,-1.065 l -0.93,-0.9265 0.42,-0.4251 0.97,0.9661 c 0.33,-0.2069 0.71,-0.333 1.13,-0.3507 v -2.607 h 0.68 v 2.6803 c 0.33,0.0851 0.62,0.239 0.88,0.4451 l 1.13,-1.1339 0.42,0.4251 -1.14,1.1469 c 0.18,0.249 0.31,0.5351 0.38,0.8447 h 2.46 v 0.6011 h -2.41 c -0.02,0.4126 -0.14,0.7971 -0.35,1.1257 l 1.06,1.0663 -0.42,0.425 -1.03,-1.0268 c -0.27,0.2532 -0.61,0.441 -0.98,0.5385 v 2.4798 z"
                 id="path1048" />
            </g>
            <g
               id="Union_80">
              <path
                 d="m 1295.42,-0.88894 v -2.40652 c -0.46,-0.01984 -0.89,-0.17679 -1.25,-0.43136 l -0.84,0.8463 -0.43,-0.42505 0.84,-0.83319 c -0.31,-0.37321 -0.5,-0.84407 -0.52,-1.35863 h -2.61 v -0.60112 h 2.66 c 0.09,-0.40554 0.29,-0.77089 0.56,-1.06499 l -0.93,-0.92653 0.43,-0.42505 0.96,0.96603 c 0.33,-0.20685 0.72,-0.333 1.13,-0.35065 v -2.607 h 0.69 v 2.68025 c 0.32,0.08509 0.62,0.23898 0.87,0.44511 l 1.13,-1.13386 0.43,0.42505 -1.15,1.14697 c 0.18,0.24892 0.31,0.53509 0.38,0.84468 h 2.46 v 0.60111 h -2.41 c -0.02,0.4126 -0.14,0.7971 -0.35,1.12569 l 1.07,1.06625 -0.43,0.42505 -1.02,-1.02675 c -0.28,0.25318 -0.61,0.44096 -0.98,0.53844 v 2.47977 z"
                 id="path1051" />
            </g>
            <g
               id="Union_81">
              <path
                 d="m 1351.92,261.196 v -2.407 c -0.46,-0.02 -0.89,-0.177 -1.24,-0.431 l -0.85,0.846 -0.42,-0.425 0.83,-0.833 c -0.3,-0.374 -0.5,-0.844 -0.52,-1.359 h -2.6 v -0.601 h 2.66 c 0.08,-0.406 0.28,-0.771 0.55,-1.065 l -0.92,-0.927 0.42,-0.425 0.97,0.966 c 0.33,-0.206 0.71,-0.333 1.12,-0.35 v -2.607 h 0.69 v 2.68 c 0.33,0.085 0.62,0.239 0.87,0.445 l 1.14,-1.134 0.42,0.425 -1.14,1.147 c 0.17,0.249 0.31,0.535 0.37,0.845 h 2.46 v 0.601 h -2.4 c -0.02,0.413 -0.15,0.797 -0.35,1.126 l 1.06,1.066 -0.42,0.425 -1.03,-1.027 c -0.27,0.253 -0.61,0.441 -0.98,0.539 v 2.48 z"
                 id="path1054" />
            </g>
            <g
               id="Union_82">
              <path
                 d="m 1290.61,380.215 v -2.406 c -0.46,-0.02 -0.89,-0.177 -1.24,-0.431 l -0.85,0.846 -0.43,-0.425 0.84,-0.833 c -0.31,-0.374 -0.5,-0.844 -0.52,-1.359 h -2.61 v -0.601 h 2.66 c 0.09,-0.406 0.29,-0.771 0.56,-1.065 l -0.93,-0.927 0.43,-0.425 0.97,0.966 c 0.32,-0.206 0.71,-0.333 1.12,-0.35 v -2.607 h 0.69 v 2.68 c 0.32,0.085 0.62,0.239 0.87,0.445 l 1.13,-1.134 0.43,0.425 -1.15,1.147 c 0.18,0.249 0.31,0.535 0.38,0.845 h 2.46 v 0.601 h -2.41 c -0.01,0.413 -0.14,0.797 -0.35,1.126 l 1.07,1.066 -0.43,0.425 -1.02,-1.027 c -0.28,0.253 -0.61,0.441 -0.98,0.539 v 2.479 z"
                 id="path1057" />
            </g>
            <g
               id="Union_83">
              <path
                 d="m 453.864,245.567 v -2.407 c -0.463,-0.02 -0.892,-0.177 -1.245,-0.431 l -0.846,0.846 -0.425,-0.425 0.833,-0.833 c -0.306,-0.373 -0.497,-0.844 -0.519,-1.359 h -2.606 v -0.601 h 2.659 c 0.09,-0.406 0.287,-0.771 0.559,-1.065 l -0.926,-0.926 0.425,-0.426 0.966,0.966 c 0.328,-0.206 0.713,-0.333 1.125,-0.35 v -2.607 h 0.687 v 2.68 c 0.324,0.085 0.621,0.239 0.872,0.445 l 1.134,-1.134 0.425,0.425 -1.147,1.147 c 0.18,0.249 0.311,0.535 0.379,0.845 h 2.459 v 0.601 h -2.406 c -0.018,0.413 -0.144,0.797 -0.351,1.126 l 1.066,1.066 -0.425,0.425 -1.026,-1.027 c -0.274,0.254 -0.608,0.441 -0.98,0.539 v 2.48 z"
                 id="path1060" />
            </g>
            <g
               id="Union_84">
              <path
                 d="m 589.716,18.3466 v -2.4065 c -0.464,-0.0199 -0.893,-0.1768 -1.246,-0.4314 l -0.846,0.8463 -0.425,-0.425 0.833,-0.8332 c -0.306,-0.3732 -0.496,-0.8441 -0.518,-1.3587 h -2.607 V 13.137 h 2.659 c 0.09,-0.4055 0.287,-0.7709 0.559,-1.065 l -0.926,-0.9265 0.425,-0.425 0.966,0.966 c 0.328,-0.2069 0.713,-0.333 1.126,-0.3507 V 8.72882 h 0.687 v 2.68028 c 0.324,0.0851 0.62,0.239 0.872,0.4451 l 1.133,-1.1339 0.425,0.4251 -1.146,1.147 c 0.179,0.2489 0.31,0.535 0.378,0.8446 h 2.459 v 0.6011 h -2.406 c -0.018,0.4126 -0.144,0.7971 -0.351,1.1257 l 1.066,1.0663 -0.425,0.425 -1.026,-1.0267 c -0.274,0.2532 -0.608,0.4409 -0.979,0.5384 v 2.4798 z"
                 id="path1063" />
            </g>
            <g
               id="Union_85">
              <path
                 d="m 721.96,209.5 v -2.407 c -0.464,-0.019 -0.892,-0.176 -1.245,-0.431 l -0.847,0.846 -0.425,-0.425 0.833,-0.833 c -0.305,-0.373 -0.496,-0.844 -0.518,-1.359 h -2.607 v -0.601 h 2.66 c 0.089,-0.405 0.286,-0.771 0.559,-1.065 l -0.927,-0.926 0.425,-0.425 0.966,0.966 c 0.329,-0.207 0.713,-0.333 1.126,-0.351 v -2.607 h 0.687 v 2.68 c 0.324,0.086 0.62,0.239 0.872,0.446 l 1.134,-1.134 0.425,0.425 -1.147,1.147 c 0.179,0.249 0.31,0.535 0.379,0.844 h 2.459 v 0.601 h -2.407 c -0.017,0.413 -0.144,0.798 -0.35,1.126 l 1.066,1.066 -0.425,0.425 -1.027,-1.026 c -0.273,0.253 -0.608,0.441 -0.979,0.538 v 2.48 z"
                 id="path1066" />
            </g>
            <g
               id="Union_86">
              <path
                 d="m 186.971,-44.1689 v -4.2115 c -0.812,-0.0347 -1.561,-0.3094 -2.179,-0.7548 l -1.481,1.481 -0.744,-0.7439 1.458,-1.458 c -0.535,-0.6532 -0.869,-1.4772 -0.907,-2.3777 h -4.562 v -1.0519 h 4.653 c 0.158,-0.7097 0.502,-1.3491 0.979,-1.8638 l -1.621,-1.6214 0.744,-0.7438 1.69,1.6905 c 0.575,-0.3619 1.248,-0.5827 1.97,-0.6136 v -4.5623 h 1.202 v 4.6905 c 0.567,0.1489 1.086,0.4182 1.526,0.779 l 1.985,-1.9843 0.743,0.7438 -2.007,2.0072 c 0.314,0.4356 0.543,0.9364 0.663,1.4782 h 4.304 v 1.0519 h -4.212 c -0.031,0.7221 -0.252,1.395 -0.614,1.97 l 1.866,1.8659 -0.743,0.7439 -1.797,-1.7968 c -0.478,0.443 -1.064,0.7716 -1.714,0.9422 v 4.3397 z"
                 id="path1069" />
            </g>
            <g
               id="Union_87">
              <path
                 d="m 952.787,191.467 v -3.61 c -0.696,-0.03 -1.339,-0.265 -1.868,-0.647 l -1.27,1.269 -0.638,-0.637 1.25,-1.25 c -0.458,-0.56 -0.744,-1.266 -0.777,-2.038 h -3.911 v -0.902 h 3.989 c 0.135,-0.608 0.43,-1.156 0.839,-1.597 l -1.39,-1.39 0.638,-0.638 1.449,1.449 c 0.493,-0.31 1.07,-0.499 1.689,-0.526 v -3.91 h 0.901 v 3.989 c 0.537,0.119 1.026,0.363 1.437,0.699 l 1.701,-1.701 0.637,0.638 -1.72,1.72 c 0.269,0.374 0.465,0.803 0.568,1.267 H 960 v 0.902 h -3.61 c -0.026,0.619 -0.216,1.196 -0.526,1.688 l 1.599,1.6 -0.637,0.637 -1.54,-1.54 c -0.441,0.409 -0.989,0.704 -1.598,0.839 v 3.689 z"
                 id="path1072" />
            </g>
            <g
               id="Union_88">
              <path
                 d="m 489.931,494.427 v -3.61 c -0.696,-0.03 -1.338,-0.265 -1.868,-0.647 l -1.269,1.269 -0.638,-0.637 1.25,-1.25 c -0.459,-0.56 -0.745,-1.266 -0.778,-2.038 h -3.91 v -0.902 h 3.989 c 0.135,-0.608 0.43,-1.156 0.839,-1.597 l -1.39,-1.39 0.638,-0.638 1.449,1.449 c 0.492,-0.31 1.069,-0.499 1.688,-0.526 V 480 h 0.902 v 3.989 c 0.536,0.119 1.026,0.363 1.437,0.699 l 1.7,-1.701 0.638,0.638 -1.72,1.72 c 0.269,0.374 0.465,0.803 0.568,1.267 h 3.688 v 0.902 h -3.609 c -0.027,0.619 -0.216,1.196 -0.526,1.688 l 1.599,1.6 -0.638,0.637 -1.54,-1.54 c -0.441,0.409 -0.989,0.704 -1.597,0.839 v 3.689 z"
                 id="path1075" />
            </g>
            <g
               id="Union_89">
              <path
                 d="m 274.733,120.535 v -3.609 c -0.695,-0.03 -1.338,-0.266 -1.868,-0.647 l -1.269,1.269 -0.638,-0.637 1.25,-1.25 c -0.458,-0.56 -0.745,-1.266 -0.778,-2.038 h -3.91 v -0.902 h 3.989 c 0.135,-0.608 0.43,-1.156 0.839,-1.597 l -1.39,-1.39 0.638,-0.638 1.449,1.449 c 0.493,-0.31 1.069,-0.499 1.688,-0.526 v -3.91 h 0.902 v 3.989 c 0.537,0.119 1.026,0.363 1.437,0.699 l 1.701,-1.701 0.637,0.638 -1.72,1.72 c 0.269,0.373 0.465,0.803 0.568,1.267 h 3.689 v 0.902 h -3.61 c -0.027,0.619 -0.216,1.195 -0.526,1.688 l 1.599,1.6 -0.637,0.637 -1.541,-1.54 c -0.441,0.409 -0.989,0.704 -1.597,0.839 v 3.688 z"
                 id="path1078" />
            </g>
            <g
               id="Union_90">
              <path
                 d="m 489.931,68.8399 v -3.6098 c -0.696,-0.0298 -1.338,-0.2652 -1.868,-0.647 l -1.269,1.2695 -0.638,-0.6376 1.25,-1.2498 c -0.459,-0.5598 -0.745,-1.2661 -0.778,-2.038 h -3.91 v -0.9017 h 3.989 c 0.135,-0.6083 0.43,-1.1563 0.839,-1.5975 l -1.39,-1.3898 0.638,-0.6375 1.449,1.449 c 0.492,-0.3103 1.069,-0.4995 1.688,-0.526 v -3.9104 h 0.902 v 3.9891 c 0.536,0.119 1.026,0.3626 1.437,0.6989 l 1.7,-1.7007 0.638,0.6376 -1.72,1.7204 c 0.269,0.3733 0.465,0.8026 0.568,1.2669 h 3.688 v 0.9017 h -3.609 c -0.027,0.6189 -0.216,1.1957 -0.526,1.6885 l 1.599,1.5994 -0.638,0.6376 -1.54,-1.5401 c -0.441,0.4088 -0.989,0.704 -1.597,0.8388 v 3.6885 z"
                 id="path1081" />
            </g>
            <g
               id="Union_91">
              <path
                 d="m 709.938,204.691 v -3.61 c -0.696,-0.03 -1.338,-0.265 -1.868,-0.647 l -1.27,1.27 -0.637,-0.638 1.249,-1.25 c -0.458,-0.56 -0.744,-1.266 -0.777,-2.038 h -3.911 v -0.901 h 3.99 c 0.134,-0.609 0.43,-1.157 0.838,-1.598 l -1.389,-1.39 0.637,-0.637 1.449,1.449 c 0.493,-0.31 1.07,-0.5 1.689,-0.526 v -3.911 h 0.901 v 3.99 c 0.537,0.118 1.027,0.362 1.437,0.698 l 1.701,-1.7 0.638,0.637 -1.721,1.721 c 0.269,0.373 0.466,0.802 0.569,1.267 h 3.688 v 0.901 h -3.61 c -0.026,0.619 -0.215,1.196 -0.526,1.689 l 1.6,1.599 -0.638,0.638 -1.54,-1.54 c -0.441,0.409 -0.989,0.704 -1.598,0.839 v 3.688 z"
                 id="path1084" />
            </g>
            <g
               id="Union_92">
              <path
                 d="m 1029.73,727.658 v -3.61 c -0.7,-0.03 -1.34,-0.265 -1.87,-0.647 l -1.27,1.269 -0.64,-0.637 1.25,-1.25 c -0.45,-0.56 -0.74,-1.266 -0.77,-2.038 h -3.91 v -0.902 h 3.98 c 0.14,-0.608 0.43,-1.156 0.84,-1.597 l -1.39,-1.39 0.64,-0.638 1.45,1.45 c 0.49,-0.311 1.07,-0.5 1.69,-0.526 v -3.911 h 0.9 v 3.989 c 0.54,0.119 1.03,0.363 1.44,0.699 l 1.7,-1.701 0.64,0.638 -1.72,1.72 c 0.26,0.374 0.46,0.803 0.56,1.267 h 3.69 v 0.902 h -3.61 c -0.02,0.619 -0.21,1.196 -0.52,1.689 l 1.6,1.599 -0.64,0.637 -1.54,-1.54 c -0.44,0.409 -0.99,0.704 -1.6,0.839 v 3.689 z"
                 id="path1087" />
            </g>
            <g
               id="Union_93">
              <path
                 d="m 1438.48,518.471 v -3.61 c -0.69,-0.03 -1.33,-0.265 -1.86,-0.647 l -1.27,1.27 -0.64,-0.638 1.25,-1.25 c -0.46,-0.56 -0.75,-1.266 -0.78,-2.038 h -3.91 v -0.901 h 3.99 c 0.14,-0.609 0.43,-1.157 0.84,-1.598 l -1.39,-1.39 0.64,-0.637 1.45,1.449 c 0.49,-0.31 1.07,-0.5 1.68,-0.526 v -3.911 h 0.91 v 3.99 c 0.53,0.118 1.02,0.362 1.43,0.698 l 1.7,-1.7 0.64,0.637 -1.72,1.721 c 0.27,0.373 0.47,0.802 0.57,1.267 h 3.69 v 0.901 h -3.61 c -0.03,0.619 -0.22,1.196 -0.53,1.689 l 1.6,1.599 -0.64,0.638 -1.54,-1.54 c -0.44,0.409 -0.99,0.704 -1.59,0.839 v 3.688 z"
                 id="path1090" />
            </g>
            <g
               id="Union_94">
              <path
                 d="m 1438.48,102.502 v -3.6097 c -0.69,-0.0297 -1.33,-0.2652 -1.86,-0.647 l -1.27,1.2695 -0.64,-0.6375 1.25,-1.2499 c -0.46,-0.5598 -0.75,-1.2661 -0.78,-2.038 h -3.91 v -0.9016 h 3.99 c 0.14,-0.6084 0.43,-1.1564 0.84,-1.5975 l -1.39,-1.3898 0.64,-0.6376 1.45,1.449 c 0.49,-0.3102 1.07,-0.4995 1.68,-0.5259 v -3.9105 h 0.91 v 3.9892 c 0.53,0.1189 1.02,0.3625 1.43,0.6988 l 1.7,-1.7007 0.64,0.6376 -1.72,1.7204 c 0.27,0.3734 0.47,0.8026 0.57,1.267 h 3.69 v 0.9016 h -3.61 c -0.03,0.6189 -0.22,1.1957 -0.53,1.6886 l 1.6,1.5993 -0.64,0.6376 -1.54,-1.5401 c -0.44,0.4088 -0.99,0.704 -1.59,0.8388 v 3.6884 z"
                 id="path1093" />
            </g>
          </g>
        </g>
        <rect
           x="135"
           y="380"
           width="152.65401"
           height="162"
           id="satellite"
           fill="#000000"
           fill-rule="nonzero"
           stroke="none"
           stroke-width="1" />
      </g>
    </g>
  </g>
</svg>
